<?xml version="1.0" encoding="utf-8"?>
<!-- Generator: Adobe Illustrator 18.0.0, SVG Export Plug-In . SVG Version: 6.00 Build 0)  -->
<!DOCTYPE svg PUBLIC "-//W3C//DTD SVG 1.1//EN" "http://www.w3.org/Graphics/SVG/1.1/DTD/svg11.dtd">
<svg version="1.1" id="Layer_1" xmlns="http://www.w3.org/2000/svg" xmlns:xlink="http://www.w3.org/1999/xlink" x="0px" y="0px"
	 viewBox="0 0 147.7 134.1" enable-background="new 0 0 147.7 134.1" xml:space="preserve">
<rect x="0" y="0" fill="#086DB6" width="60.5" height="134.1"/>
<rect x="60.5" y="0" fill="#EF4144" width="87.2" height="134.1"/>
<g>
	<path fill="#FFFFFF" d="M35.7,26.5v2.1C36.1,27.7,35.9,26.9,35.7,26.5z"/>
	<path fill="#FFFFFF" d="M39.8,15.1c0.1,0,0-0.3,0.2-0.3c0.2,0,0.6,0.2,0.7,0.4c0.1,0.3-0.2,0.9,0.7,1c0,0,0,0.1,0,0.3h0
		c0,0.2-0.1,0.3-0.1,0.4c0.1,0,0.1,0,0.2,0c1.1,0.1,1.8,0,2.1-0.4c0,0,0.2-0.2,0.3-0.4c0.3-0.6,0.3-1.1,0.2-1.6h0c0,0,0-0.1,0-0.1
		c0-0.1,0-0.1-0.1-0.2c-0.3-0.5-0.9-1-1.7-1.3c-0.1,0-0.1,0-0.2,0c0,0,0,0,0,0c0,0,0,0,0,0l0,0c0,0,0,0,0,0c0,0,0.2,0,0.2,0
		c0.6,0.1,1.6,0.7,1.9,1.3c0.2-0.1,0.4-0.5,0.4-0.8c0-0.1,0-0.4,0.1-0.8c0-0.1,0-0.2-0.1-0.3c-0.1,0-0.2,0-0.2,0.1
		c-0.2,0.3-0.5,0.1-0.4-0.2c0-0.1,0-0.2-0.1-0.3c-0.1,0-0.2,0-0.2,0.1c-0.1,0.3-0.5,0.1-0.4-0.2c0-0.1,0-0.2-0.1-0.3
		c-0.1,0-0.2,0-0.2,0.1c-0.1,0.3-0.5,0.1-0.4-0.2c0-0.1,0-0.2-0.1-0.3c-0.1,0-0.2,0-0.2,0.1c-0.1,0.2-0.2,0.4-0.3,0.5
		c0.7,0.1,1.4,0.5,1.9,1c0,0,0.2,0.2,0.2,0.2c0,0,0,0,0,0c0,0,0,0,0,0c0,0,0,0.1,0,0.1c0,0,0,0,0,0c-0.1-0.1-0.1-0.2-0.2-0.2
		c-0.8-0.6-1.4-0.9-2-1c-0.4,0-0.3,0.5-0.2,0.7c-0.6-0.1-1.1,0.3-1.1,0.7c0,0.2,0,0.3,0.1,0.5c0,0,0,0,0,0c0,0-0.1-0.1-0.2-0.2
		c0-0.1-0.1-0.2-0.1-0.3c-0.5,0-1,0.3-0.9,0.8C39.4,14.8,39.7,15.1,39.8,15.1z M41.6,14.4c0.1-0.2,0.2,0.5,0.7,0.3
		C41.9,15.2,41.4,14.7,41.6,14.4z M41.6,14.1c0.2-0.1,0.4-0.5,0.7-0.3c0.1,0.1,0.3,0.2,0.4,0.3c0.2,0.1,0.3,0.2,0.4,0.4
		c0.1,0.2-0.2,0.6-0.4,0.2c-0.2-0.3-0.4-0.8-0.8-0.6c-0.3,0.2-0.6,0.4-0.6,0.2C41.2,14.1,41.4,14.1,41.6,14.1z M40.1,14.1
		c-0.1,0.2-0.4,0.2-0.4,0.4C39.5,14.4,39.9,13.9,40.1,14.1z"/>
	<polygon fill="#FFFFFF" points="34.5,36.7 34.7,36.7 34.6,36.4 	"/>
	<path fill="#FFFFFF" d="M39.6,35.2c0,0-0.1,0-0.2,0c0,0,0,0,0,0l0.1,0.4c0.1,0,0.1,0,0.2-0.1c0,0,0,0,0.1-0.1c0,0,0-0.1,0-0.1
		C39.7,35.3,39.6,35.3,39.6,35.2z"/>
	<polygon fill="#FFFFFF" points="41.7,35.1 41.9,35 41.7,34.8 	"/>
	<path fill="#FFFFFF" d="M35.1,19.4C35.1,19.4,35.1,19.4,35.1,19.4C35.1,19.4,35.1,19.4,35.1,19.4c-0.1,0.1-0.3,0.2-0.5,0.3h1
		C35.4,19.6,35.2,19.5,35.1,19.4z"/>
	<path fill="#FFFFFF" d="M53.6,36.4c-0.4-0.4-1.3-0.2-1.3-0.2c0.5-1.5-0.9-1.9-0.9-1.9c-0.5-0.1-0.8,0-1,0.1c0,0,0,0,0,0
		c0,0,0,0,0,0c0,0-0.1,0-0.1,0.1c-0.1,0.1-0.2,0.3-0.2,0.5c0,0.4,0.3,0.7,0.7,0.7c0.2,0,0.3,0,0.4-0.1c0.1-0.1,0.2-0.2,0.3-0.4
		c0.2,0.1,0.3,0.3,0.3,0.3c0.4,1.3-1,1.7-1,1.7c-3.1,0.9-5-0.7-5-0.7l0.5-0.3c0.2-0.1,0.4-0.1,0.5-0.1c0,0,0,0.1,0,0.1
		c0,0.3,0.3,0.6,0.6,0.6c0.3,0,0.6-0.3,0.6-0.6c0-0.1,0-0.2-0.1-0.3l0,0c0,0,0-0.1,0-0.1c-0.4-0.6-1.6-0.2-1.6-0.2
		c0.4-1,0-1.8,0-1.8c-0.2-0.4-0.2-0.5-0.2-0.5C46.1,33,46,33,46,33c-0.2-0.3-0.5-0.1-0.5-0.1c-0.5,0.1-0.6-0.1-0.6-0.1
		c-0.4-0.3-0.6-0.1-0.6-0.1c-0.2,0.1,0.1,0.4,0.1,0.4c-0.4,0-0.6,0.6-0.6,0.6c-0.2,1,0.6,1,0.6,1c0.6,0,0.6-0.4,0.6-0.4
		c0.1-0.4-0.6-0.5-0.6-0.5c0.1-0.3,0.3-0.3,0.3-0.3c0.7-0.2,1,0.6,1,0.6c0.5,0.8-0.2,1.6-0.2,1.6c-0.1,0.1-0.2,0-0.2,0
		c-0.4-0.2-0.9-0.6-0.9-0.6c0,0,0,0,0,0h-0.2c-0.2,0-0.5,0.1-0.7,0.1c0.3,0.3,1.1,1,1.1,1c-0.6,0.5-1,0.1-1,0.1
		c-0.3-0.3-0.2-0.9-0.2-1.1c0,0,0,0-0.1,0c-0.3,0.1-0.6,0.2-0.9,0.4c0.3,0.5,0.8,1.3,0.8,1.3c-0.7,0.3-0.9-0.7-0.9-1.2
		c-0.1,0.1-0.3,0.1-0.4,0.2c0,0.1,0,0.2,0,0.2c0,0.5,0.5,1.2,0.5,1.2c-0.5-0.1-0.8,0.2-0.8,0.2c-0.3,0.3-0.3,0.6-0.3,0.8
		c0,0.2,0.2,0.3,0.4,0.3c0.2,0,0.4-0.2,0.4-0.4c0-0.2-0.2-0.4-0.3-0.4c0.2-0.4,0.5-0.1,0.5-0.1c0.6,0.5-0.3,1.1-0.3,1.1
		c-0.6,0.4-1.2-0.4-1.2-0.4c0.7-1.2,0.8-2,0.7-2.5c-0.2,0.1-0.4,0.2-0.7,0.2c0.3,1-0.4,1.6-0.4,1.6c-0.2-0.1-0.2-0.7-0.2-0.7
		c-0.1-0.2-0.1-0.5-0.2-0.7c-0.2,0.1-0.4,0.1-0.6,0.2c0.2,0.7,0.3,1.6,0.3,1.6c-0.1,0.1-0.5,0.2-0.5,0.2c-0.5,0-0.2-0.2-0.2-0.2
		c0.3-0.2,0.2-0.4,0.2-0.4c-0.2-0.3-0.7,0-0.7,0c-0.7,0.4-0.5,0.8-0.5,0.8c0.1,0.3,0.8,0.5,0.8,0.5c-0.4,0.3-1.2,0.2-1.3,0.2
		c0-0.2-0.2-0.4-0.4-0.4c0,0,0,0,0,0c-0.3,0-0.4,0.1-0.5,0.2c0,0-0.1,0.1-0.1,0.2l-0.5-0.1c-0.3,0-0.5-1-0.6-1.8c-0.1,0-0.3,0-0.4,0
		c0.1,0.9,0.3,1.6,0.3,1.6c-0.2,0-0.8-0.5-0.8-0.5c-0.8-0.5-1.4-0.3-1.4-0.3c-0.4,0.1-0.7,0.4-0.7,0.9c0,0.5,0.4,0.9,0.9,0.9
		c0.5,0,0.9-0.4,0.9-0.9c0.3,0.2,0.6,0.3,0.6,0.3c0.8,0.5,1.6,0.6,1.8,0.6c0.1,0.3,0.3,0.5,0.6,0.5c0.2,0,0.5-0.1,0.6-0.3
		c1.7-0.1,2.3-0.8,2.3-0.8c0.2-0.2,0.2-0.1,0.2-0.1c0.6,0.9,1.8,0.4,1.8,0.4c0.2-0.1,0.3,0,0.3,0C42.6,40.2,43,40,43,40
		c0.5-0.2,0.2-0.6,0.2-0.6c-0.2-0.2,0-0.2,0-0.2c0.6,0.1,0.7-0.2,0.7-0.2c0.1-0.3-0.3-0.5-0.3-0.5c-0.1-0.1,0.1-0.3,0.1-0.3
		c0.3-0.2,0.3-0.4,0.3-0.4c0.4,0,0.4-0.2,0.4-0.2c0-0.2-0.5-0.2-0.5-0.2c-0.4,0-0.3-0.3-0.3-0.3c0.6,0,1.6-0.3,1.6-0.3
		c1.4,1.1,3.4,1.4,3.4,1.4c0,0.2,0,0.5,0,0.5c0,0,0,0,0,0c-0.2,0-0.3,0.1-0.3,0.3c0,0.2,0.2,0.3,0.3,0.3c0,0,0.1,0,0.1,0
		c0.7-0.2,0.7-1.1,0.7-1.1c1.9,0.2,3.2-1.2,3.2-1.2c0.2-0.2,0.3-0.1,0.3-0.1c0,0,0,0,0,0c0.1,0.1,0.2,0.2,0.4,0.2
		c0.2,0,0.3-0.1,0.4-0.2c0.1-0.1,0.1-0.2,0.1-0.3c0,0,0,0,0,0c0,0,0,0,0,0C53.7,36.5,53.6,36.4,53.6,36.4z"/>
	<path fill="#FFFFFF" d="M31,38.8c0.2-0.1,0.2-0.3,0.2-0.3c0-0.5-0.3-0.7-0.3-0.8c-0.2,0-0.4,0-0.7,0h0c-0.2,0-0.4,0-0.7,0
		c0,0-0.4,0.2-0.3,0.8c0,0,0,0.2,0.2,0.3c0,0-0.5,0.2-0.5,0.5c0,0-0.1,0.2,0.4,0.6c0,0,0.3,0.3,0.4,0.6c0,0,0,0.4,0.5,0.4
		c0.5,0,0.5-0.4,0.5-0.4c0.1-0.3,0.4-0.6,0.4-0.6c0.4-0.3,0.4-0.6,0.4-0.6C31.5,39,31,38.8,31,38.8z"/>
	<polygon fill="#FFFFFF" points="26.2,36.8 26.4,36.8 26.3,36.5 	"/>
	<path fill="#FFFFFF" d="M25.2,36.1C25.2,36.1,25.2,36.1,25.2,36.1l-0.1,0.4c0.1,0,0.1,0,0.2,0c0,0,0.1,0,0.1-0.1c0,0,0-0.1,0-0.1
		c0-0.1,0-0.1,0-0.2C25.4,36.1,25.3,36.1,25.2,36.1z"/>
	<path fill="#FFFFFF" d="M28.8,36.4c-0.1,0-0.2,0-0.2,0.1c0,0.1-0.1,0.2-0.1,0.3c0,0.2,0,0.3,0.1,0.3c0,0.1,0.1,0.1,0.2,0.1
		c0.1,0,0.2,0,0.2-0.1c0-0.1,0.1-0.2,0.1-0.3c0-0.1,0-0.3,0-0.3C28.9,36.4,28.9,36.4,28.8,36.4z"/>
	<path fill="#FFFFFF" d="M31.9,36.4c-0.1,0-0.1,0-0.2,0.1c0,0.1-0.1,0.2,0,0.3c0,0.2,0,0.3,0.1,0.3c0,0.1,0.1,0.1,0.2,0.1
		c0.1,0,0.2,0,0.2-0.1c0-0.1,0.1-0.2,0.1-0.3c0-0.1,0-0.3-0.1-0.3C32.1,36.4,32,36.4,31.9,36.4z"/>
	<polygon fill="#FFFFFF" points="23.4,36.3 23.6,36.4 23.6,36.1 	"/>
	<path fill="#FFFFFF" d="M18.7,34.5l-0.1,0.4l0,0c0.1,0,0.1,0,0.2,0c0,0,0.1-0.1,0.1-0.1c0,0,0-0.1,0-0.1c0,0,0-0.1-0.1-0.1
		C18.8,34.5,18.7,34.5,18.7,34.5z"/>
	<path fill="#FFFFFF" d="M19.6,34.9c-0.1,0.1-0.1,0.1-0.2,0.3c0,0.2-0.1,0.3,0,0.3c0,0.1,0.1,0.1,0.2,0.2c0.1,0,0.2,0,0.2,0
		c0.1,0,0.1-0.1,0.2-0.3c0-0.1,0.1-0.2,0-0.3c0-0.1-0.1-0.1-0.2-0.2C19.8,34.9,19.7,34.9,19.6,34.9z"/>
	<path fill="#FFFFFF" d="M21,35.2C21,35.2,21,35.2,21,35.2l-0.1,0.4c0.1,0,0.1,0,0.2,0c0,0,0.1,0,0.1,0c0,0,0-0.1,0.1-0.1
		c0-0.1,0-0.1,0-0.2C21.1,35.3,21.1,35.2,21,35.2z"/>
	<path fill="#FFFFFF" d="M42.3,33.7c-0.1,0-0.2,0-0.2,0c-0.5,0.1-4.8,2-11.9,2c-7.1,0-11.4-1.9-11.9-2c0,0-0.1,0-0.2,0
		c-0.1,0-0.2,0-0.3,0.1L16.3,35c0,0,0,0,0,0c0.4,0,0.9,0.2,0.9,0.2c3.8,1.7,8.1,2.3,13,2.4c4.8,0,9.2-0.7,13-2.4
		c0,0,0.5-0.2,0.9-0.2h0l-1.5-1.1C42.5,33.8,42.4,33.7,42.3,33.7z M28.8,36l0.3,0l-0.4,0.2h-0.1L28.8,36z M19.1,34.8
		c0,0.1-0.1,0.1-0.1,0.1c-0.1,0-0.1,0-0.2,0c-0.1,0-0.1,0-0.2-0.1l-0.1,0l-0.1,0.2c0,0,0,0.1,0,0.1c0,0,0,0,0.1,0.1l0,0l0,0.1
		L18,35.2l0-0.1l0,0c0,0,0.1,0,0.1,0c0,0,0,0,0.1-0.1l0.2-0.6c0,0,0-0.1,0-0.1c0,0,0,0-0.1-0.1l0,0l0-0.1l0.4,0.1
		c0.1,0,0.2,0.1,0.2,0.1c0.1,0,0.1,0.1,0.1,0.1c0,0,0.1,0.1,0.1,0.1C19.1,34.7,19.1,34.8,19.1,34.8z M20.3,35.5
		c0,0.1-0.1,0.2-0.3,0.3c-0.1,0.1-0.3,0.1-0.4,0c-0.1,0-0.2-0.1-0.3-0.2c-0.1-0.1-0.1-0.2-0.1-0.3c0-0.1,0-0.2,0-0.3
		c0-0.1,0.1-0.2,0.2-0.2c0.1-0.1,0.2-0.1,0.3-0.1c0.1,0,0.2,0,0.3,0c0.2,0.1,0.3,0.1,0.4,0.3C20.3,35.2,20.3,35.3,20.3,35.5z
		 M21.4,35.5c0,0.1-0.1,0.2-0.3,0.2c0,0,0.1,0.1,0.1,0.3c0,0.1,0.1,0.2,0.1,0.2c0,0,0,0,0.1,0l0,0.1l-0.3-0.1c0,0,0-0.1-0.1-0.3
		c0-0.1,0-0.1,0-0.2c0,0,0,0,0-0.1c0,0,0,0-0.1,0l-0.1,0.2c0,0,0,0.1,0,0.1c0,0,0,0,0.1,0.1l0,0l0,0.1L20.3,36l0-0.1l0,0
		c0,0,0.1,0,0.1,0c0,0,0,0,0-0.1l0.2-0.6c0,0,0-0.1,0-0.1c0,0,0,0-0.1,0l0,0l0-0.1l0.4,0.1l0.1,0c0.1,0,0.2,0,0.2,0.1
		c0,0,0.1,0,0.1,0.1c0,0,0.1,0.1,0.1,0.1C21.5,35.4,21.5,35.5,21.4,35.5z M23,36.6L22,36.4l0-0.1h0c0,0,0.1,0,0.1,0c0,0,0,0,0-0.1
		l0.1-0.6c0,0,0-0.1,0-0.1c0,0,0,0-0.1,0l0,0l0-0.1l0.5,0.1l0,0.1l0,0c0,0-0.1,0-0.1,0c0,0,0,0,0,0.1l-0.1,0.6c0,0,0,0.1,0,0.1
		c0,0,0,0,0,0c0,0,0.1,0,0.1,0c0.1,0,0.2,0,0.2,0c0.1,0,0.1-0.1,0.1-0.2l0.1,0L23,36.6z M24.1,36.8l-0.5-0.1l0-0.1c0,0,0.1,0,0.1,0
		c0,0,0,0,0,0c0,0,0,0,0-0.1l0,0l0-0.1l-0.3-0.1l0,0c0,0,0,0.1,0,0.1c0,0,0,0,0,0.1c0,0,0,0,0.1,0l0,0.1L23,36.6l0-0.1
		c0.1,0,0.1,0,0.2-0.1l0.4-0.7l0.1,0l0.2,0.8c0,0.1,0,0.1,0.1,0.2C24,36.7,24.1,36.7,24.1,36.8L24.1,36.8z M25.8,37.1l-0.3,0
		c0,0-0.1-0.1-0.1-0.3c0-0.1-0.1-0.1-0.1-0.1c0,0,0,0,0,0c0,0-0.1,0-0.1,0l0,0.2c0,0,0,0.1,0,0.1c0,0,0,0,0.1,0h0l0,0.1l-0.5-0.1
		l0-0.1l0,0c0.1,0,0.1,0,0.1,0c0,0,0,0,0-0.1l0.1-0.6c0,0,0-0.1,0-0.1c0,0,0,0-0.1,0l0,0l0-0.1l0.4,0.1l0.1,0c0.1,0,0.2,0,0.2,0
		c0,0,0.1,0,0.1,0.1c0,0,0.1,0.1,0.1,0.1c0,0,0,0.1,0,0.1c0,0.1-0.1,0.2-0.2,0.2c0,0,0.1,0.1,0.1,0.2c0,0.1,0.1,0.2,0.1,0.2
		C25.7,37,25.8,37,25.8,37.1L25.8,37.1z M26.9,37.2l-0.5,0l0-0.1c0,0,0.1,0,0.1,0c0,0,0,0,0,0c0,0,0,0,0-0.1l0,0l0-0.1l-0.3,0l0,0
		c0,0,0,0.1,0,0.1c0,0,0,0,0,0.1c0,0,0,0,0.1,0l0,0.1l-0.3,0l0-0.1c0.1,0,0.1,0,0.2-0.1l0.4-0.8l0.1,0l0.2,0.8c0,0.1,0,0.1,0.1,0.1
		C26.8,37.1,26.9,37.1,26.9,37.2L26.9,37.2z M28,36.3l-0.6,0.8l0.2,0c0.1,0,0.1,0,0.1,0c0,0,0.1,0,0.1-0.1c0,0,0.1-0.1,0.1-0.1
		l0.1,0l0,0.3L27,37.2l0-0.1l0.6-0.8l-0.2,0c-0.1,0-0.2,0-0.2,0c0,0-0.1,0.1-0.1,0.1l-0.1,0l0-0.3L28,36.3L28,36.3z M29.2,37.2
		c-0.1,0.1-0.2,0.1-0.4,0.1c-0.1,0-0.2,0-0.3-0.1c-0.1-0.1-0.2-0.1-0.2-0.2c0-0.1-0.1-0.2,0-0.2c0-0.1,0-0.2,0.1-0.3
		c0.1-0.1,0.1-0.1,0.2-0.2c0.1,0,0.2-0.1,0.3-0.1c0.2,0,0.3,0.1,0.4,0.2c0.1,0.1,0.1,0.2,0.1,0.4C29.3,37,29.3,37.1,29.2,37.2z
		 M30.7,36.4C30.6,36.4,30.6,36.4,30.7,36.4c-0.1,0-0.1,0.1-0.1,0.1c0,0,0,0.1,0,0.1l0,0.8h-0.1l-0.7-0.7v0.5c0,0.1,0,0.1,0,0.1
		c0,0,0.1,0,0.1,0v0.1h-0.4v-0.1c0,0,0.1,0,0.1,0c0,0,0,0,0-0.1c0,0,0-0.1,0-0.1l0-0.5c0-0.1,0-0.2-0.1-0.2v-0.1l0.3,0l0.6,0.6
		l0-0.4c0-0.1,0-0.2-0.1-0.2v-0.1L30.7,36.4L30.7,36.4z M32.3,37.1c-0.1,0.1-0.2,0.2-0.4,0.2c-0.1,0-0.2,0-0.3-0.1
		c-0.1,0-0.2-0.1-0.2-0.2c0-0.1-0.1-0.2-0.1-0.3c0-0.1,0-0.2,0.1-0.3c0-0.1,0.1-0.2,0.2-0.2c0.1,0,0.2-0.1,0.3-0.1
		c0.2,0,0.3,0,0.4,0.1c0.1,0.1,0.2,0.2,0.2,0.4C32.5,36.9,32.4,37,32.3,37.1z M33.2,37.2L33.2,37.2L33.2,37.2
		c0.1-0.1,0.1-0.1,0.1-0.1c0,0,0-0.1,0-0.1l-0.1-0.6c0,0,0-0.1,0-0.1c0,0,0,0-0.1,0l0,0l0-0.1l0.5,0l0,0.1l0,0c-0.1,0-0.1,0-0.1,0
		c0,0,0,0.1,0,0.1l0.1,0.6c0,0,0,0.1,0,0.1c0,0,0,0,0,0c0,0,0.1,0,0.1,0c0.1,0,0.2,0,0.2-0.1c0,0,0.1-0.1,0.1-0.2l0.1,0l0,0.3
		L33.2,37.2z M34.8,37.1L34.8,37.1c0-0.1,0.1-0.1,0.1-0.1c0,0,0,0,0,0c0,0,0,0,0,0l0,0l0-0.1l-0.3,0l0,0.1c0,0,0,0.1,0,0.1
		c0,0,0,0,0,0c0,0,0,0,0.1,0l0,0.1l-0.3,0l0-0.1c0.1,0,0.1-0.1,0.1-0.2l0.2-0.8l0.1,0l0.4,0.7c0,0.1,0.1,0.1,0.1,0.1
		c0,0,0.1,0,0.1,0l0,0.1L34.8,37.1z M36.5,36.1c0,0,0-0.1-0.1-0.1c0,0,0,0-0.1,0c0,0-0.1,0-0.1,0l-0.2,0l0.1,0.3l0.1,0
		c0,0,0.1,0,0.1,0c0,0,0-0.1,0-0.1L36.5,36.1l0,0.4l-0.1,0c0-0.1,0-0.1,0-0.1c0,0,0,0-0.1,0l-0.1,0l0,0.3c0,0,0,0.1,0,0.1
		c0,0,0.1,0,0.1,0l0,0l0,0.1l-0.5,0.1l0-0.1l0,0c0.1,0,0.1,0,0.1,0c0,0,0-0.1,0-0.1l-0.1-0.6c0,0,0-0.1,0-0.1c0,0-0.1,0-0.1,0l0,0
		l0-0.1l0.8-0.1L36.5,36.1L36.5,36.1z M37.7,35.8l0.1,0.3c0,0.1,0,0.1,0,0.2c0,0,0,0.1,0,0.1c0,0-0.1,0.1-0.1,0.1
		c-0.1,0-0.1,0.1-0.2,0.1c-0.1,0-0.1,0-0.2,0c-0.1,0-0.1,0-0.2-0.1c0,0-0.1-0.1-0.1-0.1c0,0,0-0.1,0-0.2L36.8,36c0,0,0-0.1,0-0.1
		c0,0-0.1,0-0.1,0l0-0.1l0.5-0.1l0,0.1l0,0c0,0-0.1,0-0.1,0c0,0,0,0.1,0,0.1l0.1,0.4c0,0.1,0,0.1,0.1,0.2c0,0,0.1,0.1,0.1,0.1
		c0,0,0.1,0,0.2,0c0.1,0,0.1,0,0.1-0.1c0,0,0.1-0.1,0.1-0.1c0,0,0-0.1,0-0.2L37.7,35.8c-0.1-0.1-0.2-0.1-0.3-0.1l0-0.1l0.4-0.1
		l0,0.1c0,0,0,0-0.1,0C37.7,35.7,37.7,35.7,37.7,35.8C37.7,35.8,37.7,35.8,37.7,35.8z M38.1,36.5L38.1,36.5L38.1,36.5
		c0-0.1,0.1-0.1,0.1-0.1c0,0,0-0.1,0-0.1l-0.1-0.6c0,0,0-0.1,0-0.1c0,0-0.1,0-0.1,0l0,0l0-0.1l0.8-0.2l0.1,0.3l-0.1,0
		c0,0-0.1-0.1-0.1-0.1c0,0,0,0-0.1,0c0,0-0.1,0-0.1,0l-0.2,0l0.1,0.3l0.1,0c0,0,0.1,0,0.1,0c0,0,0-0.1,0-0.1l0.1,0l0.1,0.3l-0.1,0
		c0,0,0,0,0,0c0,0,0-0.1,0-0.1c0,0-0.1,0-0.1,0l-0.1,0l0.1,0.2c0,0,0,0.1,0,0.1c0,0,0,0,0.1,0c0,0,0.1,0,0.1,0c0.1,0,0.1,0,0.1-0.1
		c0,0,0-0.1,0.1-0.1c0,0,0-0.1,0-0.1l0.1,0l0.1,0.3L38.1,36.5z M40,36c0,0-0.1-0.1-0.2-0.2c-0.1-0.1-0.1-0.1-0.1-0.1c0,0,0,0-0.1,0
		c0,0-0.1,0-0.1,0l0.1,0.2c0,0,0,0.1,0,0.1c0,0,0.1,0,0.1,0l0,0l0,0.1l-0.5,0.1l0-0.1l0,0c0,0,0.1,0,0.1-0.1c0,0,0-0.1,0-0.1
		l-0.2-0.6c0,0,0-0.1,0-0.1c0,0-0.1,0-0.1,0l0,0l0-0.1l0.4-0.1l0.1,0c0.1,0,0.2,0,0.2,0c0,0,0.1,0,0.1,0c0,0,0.1,0,0.1,0.1
		c0,0,0.1,0.1,0.1,0.1c0,0.1,0,0.2-0.1,0.3c0,0,0.1,0.1,0.2,0.2c0.1,0.1,0.1,0.1,0.2,0.1c0,0,0.1,0,0.1,0l0,0.1L40,36z M40.5,35.9
		L40.5,35.9l0.3-1.1l-0.2,0.1c-0.1,0-0.2,0.1-0.2,0.1c0,0,0,0.1,0,0.2l-0.1,0l-0.1-0.3l0.8-0.3l0,0.1l-0.3,1l0.2-0.1
		c0.1,0,0.1,0,0.1-0.1c0,0,0-0.1,0.1-0.1c0,0,0-0.1,0-0.1l0.1,0l0.1,0.3L40.5,35.9z M42,35.4L42,35.4c0-0.1,0-0.1,0-0.1c0,0,0,0,0,0
		c0,0,0,0,0,0l0,0L42,35.1l-0.3,0.1l0,0.1c0,0,0,0.1,0,0.1c0,0,0,0,0,0c0,0,0,0,0.1,0l0,0.1l-0.3,0.1l0-0.1c0.1,0,0.1-0.1,0.1-0.2
		l0-0.8l0.1,0l0.6,0.6c0.1,0.1,0.1,0.1,0.1,0.1c0,0,0.1,0,0.1,0l0,0.1L42,35.4z"/>
	<path fill="#FFFFFF" d="M25.1,19.4c-0.1,0.1-0.3,0.2-0.5,0.3h1.1C25.4,19.6,25.2,19.5,25.1,19.4z"/>
	<path fill="#FFFFFF" d="M32.2,19.7c-0.2-0.1-0.4-0.2-0.5-0.2c0,0,0,0-0.1,0c-0.2-0.1-0.4-0.2-0.6-0.2h-2.2
		c-0.2,0.1-0.4,0.1-0.6,0.2c0,0,0,0-0.1,0c-0.1,0-0.3,0.1-0.5,0.2c0,0,0,0-0.1,0L32.2,19.7C32.2,19.7,32.2,19.7,32.2,19.7z"/>
	<path fill="#FFFFFF" d="M24.5,28.5v-2.4C24.3,26.6,24,27.6,24.5,28.5z"/>
	<path fill="#FFFFFF" d="M30,20.1h-5.8c0,0,0,0,0,0c0,0.1,0,0.1,0.1,0.2c0,0,0.1,0.1,0.2,0.3h5.4L30,20.1z"/>
	<path fill="#FFFFFF" d="M29.7,20.8h-5.1c0.1,0.1,0.2,0.3,0.3,0.5h4.7L29.7,20.8z"/>
	<path fill="#FFFFFF" d="M29.3,22.1l0.1-0.5H25c0.1,0.1,0.1,0.3,0.2,0.5H29.3z"/>
	<path fill="#FFFFFF" d="M29.3,22.4h-4c0,0.2,0.1,0.3,0.1,0.5h3.8L29.3,22.4z"/>
	<path fill="#FFFFFF" d="M25.2,24.4h2.1L26.7,24h-1.4C25.3,24.1,25.3,24.2,25.2,24.4z"/>
	<path fill="#FFFFFF" d="M25.3,23.2C25.3,23.2,25.3,23.2,25.3,23.2c0,0.1,0,0.3,0,0.5h0.9l-0.7-0.5H25.3z"/>
	<path fill="#FFFFFF" d="M30,24.6l2.6,3.7v1.8c0.2,0,0.3,0,0.4,0c0,0,0.1,0,0.1,0v-4.9h0.3V30c0.2,0,0.3,0,0.5-0.1v-4.8h0.3v4.7
		c0.2-0.1,0.3-0.1,0.5-0.2v-4.5h0.3v4.3c0.2-0.1,0.3-0.2,0.4-0.4c0,0,0,0,0-0.1v-3.2c-0.1-0.3-0.3-0.5-0.4-0.7
		c-0.1-0.2-0.1-0.3-0.2-0.5h-2.7l-0.6,0.4l-1.2-0.4L30,24.6l4.4-1.4h-3.4l-0.1-0.3h3.9c0-0.2,0-0.3,0.1-0.5h-4.1l-0.1-0.3h4.3
		c0.1-0.2,0.1-0.3,0.2-0.5h-4.6l-0.1-0.3h4.8c0.1-0.2,0.2-0.3,0.3-0.5h-5.2l-0.1-0.3h5.5c0.2-0.2,0.3-0.4,0.3-0.4c0,0,0,0,0-0.1h-6
		l0-0.1v0.1v0.5v0.3v0.5v0.3v0.5v0.3v0.5L30,24.6L30,24.6L30,24.6z M32.3,25.2h0.3v2.9l-0.3-0.9V25.2z"/>
	<path fill="#FFFFFF" d="M31,30.6c0.1-0.1,0.3-0.2,0.5-0.2v-2.9L31,27.1V30.6z"/>
	<path fill="#FFFFFF" d="M30.2,31.6c0.1-0.1,0.1-0.2,0.2-0.3l0,0c0.1-0.1,0.2-0.3,0.3-0.4v-4l-0.5-0.4V31.6z"/>
	<path fill="#FFFFFF" d="M29.5,30.8c0.1,0.1,0.3,0.3,0.4,0.5l0,0c0,0,0,0.1,0.1,0.1v-5.1l-0.5,0.4V30.8z"/>
	<path fill="#FFFFFF" d="M28.7,30.3c0.2,0.1,0.3,0.1,0.5,0.2v-3.6l-0.5,0.4V30.3z"/>
	<path fill="#FFFFFF" d="M31.8,30.2c0.2,0,0.3-0.1,0.5-0.1V28l-0.5-0.4V30.2z"/>
	<path fill="#FFFFFF" d="M27.9,30.1c0.1,0,0.3,0.1,0.5,0.1v-2.7l-0.5,0.4V30.1z"/>
	<path fill="#FFFFFF" d="M25.3,29.5v-4.3h0.3v4.5c0.1,0.1,0.3,0.1,0.5,0.2v-4.7h0.3V30c0.1,0,0.3,0.1,0.5,0.1v-4.8h0.3v4.9
		c0.1,0,0.1,0,0.2,0c0,0,0.1,0,0.3,0v-2l-0.3,0.2l2.7-3.7l0,0l0,0l0,0l0,0l-1-1.4h-3.4l4.4,1.4l-1.6,0.6l-0.6-0.4h-2.7
		c0,0.1-0.1,0.3-0.2,0.5c0,0.1-0.1,0.2-0.2,0.4V29C24.9,29.1,25,29.3,25.3,29.5z M27.6,25.2h0.3v1.4l-0.3,0.9V25.2z"/>
	<path fill="#FFFFFF" d="M32.6,24.4h2.2c0-0.2-0.1-0.3-0.1-0.5h-1.4L32.6,24.4z"/>
	<path fill="#FFFFFF" d="M34.7,23.2h-0.3l-0.7,0.5h1c0-0.2,0-0.3,0-0.3C34.7,23.3,34.7,23.2,34.7,23.2z"/>
	<path fill="#FFFFFF" d="M22.5,14.3c0.9,0.5,1.9,0.4,2.3,0.3c0.2,0,0.4-0.1,0.7-0.3c0,0,0.1,0,0.1-0.1c0,0,0,0,0,0
		c0.3-0.3,0.6-0.8,0.5-1.4c0,0,0,0,0,0c0,0,0.1,0.2,0.1,0.4c0,0.2-0.1,0.5-0.2,0.7c0,0,0,0.1,0,0.1c0,0.1,0,0.2,0.1,0.2
		c0.2,0.2,0.6,0.2,0.9,0.1c0,0,0,0,0,0c0,0-0.2,0.3-0.6,0.3c-0.1,0-0.2,0-0.2,0c0.2,0.4,0.8,0.6,1.5,0.6c0,0,0,0,0,0
		c0,0-0.2,0.1-0.4,0.1c-0.3,0-0.6-0.1-0.9-0.2c0.3,0.4,0.8,0.7,1.7,0.8c0,0.1-0.7,0-0.9,0c0.4,1.6,1.3,1.4,1.3,1.5
		c-0.3,0.1-0.4,0.4-0.2,0.7c0.9-0.3,1.6-0.3,1.8-0.3c0.2,0,0.9,0,1.8,0.4c0.1-0.1,0.1-0.3,0.1-0.4c-0.1-0.4-1.4-0.7-2.5-0.4
		c0,0-0.1,0-0.2,0.1c0,0,0,0,0,0c0,0,0,0,0,0c0,0,0.2-0.1,0.2-0.1c0.5-0.3,1.5-0.4,2.1-0.1c0,0,0,0,0,0c0.5,0.2,0.9-0.4,0.8-0.7
		c0.4,0,0.6-0.2,0.7-0.6c-0.1,0-0.1,0.1-0.2,0.1v0c-0.1,0.1-0.3,0.1-0.3,0.1c0,0,0,0,0,0h0c0,0,0,0,0,0c0,0,0,0,0,0
		c0.1,0,0.1-0.1,0.2-0.1c0.7-0.4,1-1.1,0.9-1.4c-0.1,0.1-0.3,0.2-0.5,0.3c-0.1,0-0.2,0-0.2,0c0,0,0,0,0,0c0.1,0,0.2,0,0.2-0.1
		c0.2-0.2,0.5-0.5,0.6-0.7c-0.4-0.4-0.6-0.9-0.8-1.5c-0.1-0.2-0.3-0.5-0.6-0.5c0,0-0.1,0-0.1,0c0,0-0.1,0-0.1,0c0,0,0,0,0,0
		c0.3-0.3,0.7,0,0.9,0.1c0-0.6,0.2-0.7,0.3-0.7c0,0,0,0,0,0c-0.4,1.2,0.4,2.4,1,2.7c0.8,0.5,2.4,0.5,3.4-0.3
		C37.6,14,37.4,14,37.2,14c-0.2,0-0.4,0-0.4-0.1c0,0,0,0,0,0c0.1,0,0.3,0,0.4,0c1.5-0.4,1.5-2.2,1.3-2.3c0,0,0,0,0,0
		c0,0.1-0.1,0.2-0.1,0.3c-0.1,0.2-0.2,0.3-0.2,0.3c0,0,0,0,0,0c0.3-0.6,0.3-1,0.1-1.5c-0.1-0.3-0.3-0.6-0.6-0.8
		c-0.7-0.5-2.2-0.6-3,0c-0.3-0.3-0.6-0.5-1-0.6c-0.1,0.5-0.6,1.1-1,1.4c-0.1,0.1-0.3,0.2-0.4,0.2c0,0-0.1,0,0-0.1
		c0.8-0.5,1.2-1.1,1.2-1.8v0c0-0.4-0.1-1.1-0.6-1.6c-0.7-0.8-2.6-0.9-3.5-0.1c-0.2,0.2-0.4,0.5-0.5,0.9c0.1-0.3,0.3-0.5,0.7-0.7
		c0.4-0.1,1.1,0,1.2,0.4c-0.7-0.7-1.9-0.2-2,1c0,0,0,0,0,0c0,0.1-0.1,0.1-0.1,0.1h0c0,0-0.1,0-0.1-0.5c0-0.3,0.1-0.7,0.3-1
		c-1.5-0.3-3.2,0.5-3.2,2.6c0,0.3,0.1,0.6,0.4,0.9c0.1,0.1,0,0.1,0,0.1c0,0-0.2-0.1-0.3-0.2c-0.1-0.2-0.3-0.5-0.3-0.7
		c-0.9-0.3-1.5-0.3-2-0.3c-0.5,0.1-1.3,0.5-1.5,0.9c-0.1,0.1-0.2,0.4-0.3,0.5c-0.2,0.3-0.3,0.8-0.3,1.3C21.4,13.2,21.9,14,22.5,14.3
		z M37.1,9.8c0.3,0.1,0.6,0.4,0.8,0.8c0.2,0.4,0.1,0.7,0,1c0,0,0,0,0,0c0,0,0,0,0,0c0-0.2,0-0.6-0.2-0.9c-0.1-0.2-0.2-0.4-0.5-0.5
		c0.1,0.2,0.2,0.4,0.3,0.5c0.1,0.2,0.1,0.3,0.1,0.4c0,0.4-0.2,0.9-0.4,1.1c0,0,0,0,0,0c0,0,0,0,0,0c0.2-0.5,0.2-1,0.1-1.4
		c0,0,0-0.1-0.1-0.1c-0.2-0.3-0.4-0.6-0.9-0.6c0.2,0.1,0.4,0.3,0.5,0.6c0.2,0.5,0.2,1.2-0.1,1.4c0,0,0,0,0,0c0,0,0,0,0,0
		c0-0.1,0-0.2,0-0.2c0-0.2,0-0.4,0-0.6c-0.2-1-1-1.3-1.6-0.7C35.1,10.5,35.7,9.4,37.1,9.8z M31.3,16.6c-0.1-0.1-0.1-0.3-0.1-0.4
		c0-0.3,0.4-0.5,0.6-0.6C31.8,15.5,31.8,16,31.3,16.6z M31.2,15.7c-0.2-0.3,0.3-0.7,0.4-1C32.2,14.6,31.5,15.6,31.2,15.7z M32.7,8.2
		c0,0.5-0.2,0.6-0.3,0.6c0,0,0,0,0-0.1c0.1-0.3,0.1-0.8-0.2-1.1c-0.2-0.2-0.5-0.3-0.5-0.4C31.7,7.2,32.6,7.4,32.7,8.2z M31.4,13
		c0.4,0.2-0.2,1-0.3,1.2c0.1,0,0.4-0.4,0.6-0.3c0.2,0.2-0.5,1.1-0.6,1.1C30.2,13.7,31.4,13.4,31.4,13z M30.8,15.1
		c0.1,0.6,0.2,1.4-0.1,1.9c-0.2,0-0.1-0.3-0.1-0.4c0-0.7,0-1.3-0.2-1.9c-0.1-0.3-0.3-1.2-0.9-2.3C29.8,12.6,30.7,14,30.8,15.1z
		 M26.8,12.1c0.4,0.7,1.6,1.6,3,2c0.5,0.1,0.7,1.7,0.3,2.5c-0.4,0-0.5-0.3-0.6-0.6c0.2,0.2,0.5,0.4,0.5,0c-0.2-0.1-1.2-0.4-0.9-0.8
		c0.2-0.2,0.7,0.7,0.9,0.4c0.1-0.6-1.9-0.9-1.9-1.4c0-0.3,1.6,0.8,1.8,0.7c0-0.3-2.4-1.3-3.1-2.6C26.8,12.2,26.8,12.1,26.8,12.1
		C26.8,12.1,26.8,12.1,26.8,12.1z M23.2,13.9c0.5-0.1,1-0.4,0.9-0.9c0-0.1-0.2-0.3-0.4-0.3c-0.3,0-0.5,0.2-0.7,0.4
		c0-0.5,0.3-0.8,0.8-0.7c0.3,0,0.6,0.3,0.6,0.5C24.7,13.6,24,13.9,23.2,13.9z M23.3,10.3c0.7-0.2,1.3,0,1.7,0.4
		c1.1,1.1,0.5,2.6,0.2,2.7c0.2-0.6,0.3-1.6-0.6-1.8c-0.8-0.2-1.5,0.4-1.8,0.7c0.2-0.7,1-1.2,2-1c-0.2-0.6-1-0.8-1.8-0.3
		c-0.2,0.1-0.4,0.3-0.5,0.4C22.5,10.8,22.9,10.5,23.3,10.3z"/>
	<path fill="#FFFFFF" d="M27.4,38.3c0,0-0.6-0.2-1.4,0.3c0,0-0.7,0.5-0.8,0.5c0,0,0.2-0.8,0.3-1.6c-0.1,0-0.3,0-0.4,0
		c-0.1,0.8-0.3,1.7-0.6,1.8l-0.5,0.1c0-0.1-0.1-0.1-0.1-0.2c-0.1-0.1-0.2-0.2-0.5-0.2c0,0,0,0,0,0c-0.2,0.1-0.4,0.2-0.4,0.4
		c-0.1,0-0.9,0.1-1.3-0.2c0,0,0.8-0.3,0.8-0.5c0,0,0.2-0.4-0.5-0.8c0,0-0.6-0.3-0.7,0c0,0-0.1,0.2,0.2,0.4c0,0,0.3,0.3-0.2,0.2
		c0,0-0.3,0-0.5-0.2c0,0,0.1-1,0.3-1.6c-0.2-0.1-0.4-0.1-0.6-0.2c-0.1,0.2-0.2,0.4-0.2,0.7c0,0,0,0.6-0.2,0.7c0,0-0.7-0.6-0.4-1.6
		c-0.2-0.1-0.5-0.1-0.7-0.2c0,0.5,0.1,1.3,0.8,2.5c0,0-0.6,0.8-1.2,0.4c0,0-0.9-0.6-0.3-1.1c0,0,0.4-0.3,0.5,0.1
		c-0.2,0-0.3,0.2-0.3,0.4c0,0.2,0.2,0.4,0.4,0.4c0.2,0,0.4-0.2,0.4-0.3c0-0.1,0-0.5-0.3-0.8c0,0-0.3-0.3-0.8-0.2
		c0,0,0.5-0.6,0.5-1.2c0,0,0-0.1,0-0.2c-0.1-0.1-0.3-0.1-0.4-0.2c0,0.5-0.2,1.5-0.9,1.2c0,0,0.5-0.8,0.8-1.3
		c-0.3-0.1-0.6-0.2-0.9-0.4c0,0,0,0-0.1,0c0,0.2,0.1,0.8-0.2,1.1c0,0-0.4,0.3-1-0.1c0,0,0.8-0.7,1.1-1c-0.2-0.1-0.4-0.1-0.7-0.1
		h-0.2c0,0,0,0,0,0c0,0-0.5,0.4-0.9,0.6c0,0-0.1,0.1-0.2,0c0,0-0.7-0.8-0.1-1.6c0,0,0.3-0.7,1-0.6c0,0,0.2,0,0.3,0.3
		c0,0-0.6,0-0.6,0.5c0,0,0,0.5,0.6,0.4c0,0,0.8-0.1,0.6-1c0,0-0.1-0.6-0.6-0.6c0,0,0.3-0.3,0.1-0.4c0,0-0.2-0.2-0.6,0.1
		c0,0-0.1,0.2-0.6,0.1c0,0-0.3-0.1-0.5,0.1c0,0-0.1,0-0.1,0.4c0,0,0,0.1-0.2,0.5c0,0-0.1,0.3-0.1,0.7c-0.2-0.1-0.3-0.2-0.5-0.2
		c-0.3-0.3-0.3-1.5-0.5-2.1C12.8,32,13,31.4,13,30.7c1.9-0.4,2.6-1.8,2.8-2.5c0.3-1-0.1-2.1-0.1-2.4c0,0,0,0,0,0
		c0.1,0.2,0.2,0.3,0.2,0.5c0.9,0.1,1.5-0.1,2-0.2c0,0,0,0,0.1,0c0,0,0.1,0,0.1,0c0.1,0,0.2-0.1,0.2-0.1c0,0,0.1,0,0.1,0
		c1.3-0.7,1.9-1.8,2.3-2.4c-0.2,0-0.8-0.2-0.9-0.5c0.5,0,0.9,0.2,1.3,0.2c0.7,0,1.2-0.4,2-0.3c0,0,0.1,0.4,0.6,0.6
		c0,0.5,0,0.8,0.2,1.2c0,0.1,0.1,0.1,0.1,0.1s-0.6,0.5-0.4,0.8c0,0.1,0.1,0.2,0.1,0.3c0,0-0.1,0-0.1,0c-0.1,0-0.2,0.1-0.3,0.3
		c-0.1,0.1-0.4,0.8-0.1,0.8c0.1,0,0.1,0,0.1,0c-0.1,0.7-0.1,1.5,0.4,2.4l0,0c0,0.1,0.9,1.5,3.2,1.5h0c0.2,0,2.2,0,3,1.4
		c0,0.1,0.2,0.3,0.4,0.3c0.2,0,0.3-0.2,0.4-0.3c0.7-1.3,2.7-1.4,3-1.4h0c2.3,0,3.2-1.4,3.2-1.5l0,0c0.3-0.4,0.4-0.8,0.5-1.2
		c0.5-0.2,0.4-1.3,0.4-1.4c0.1,0.2,0.4,0.7,1,0.8c-0.1,0.5-0.1,1.3,0.5,1.4c0.2,0,0.3-0.2,0.2-0.4c0.4,1.3,0.1,2.1,0.4,2.1
		c0.4,0,0.4-0.8,0.5-0.8c0,0.1,0.2,0.3,0.2,0.6c0,0.4-0.1,0.8,0.1,0.9c0.6,0.1,0.3-1.6,0.8-1.5c-0.1,0.8,0,1.2,0.3,1.3
		c0,0.3,0,0.7-0.2,0.7c-0.9,0.2-1.6-0.5-2.4-0.3c-0.1,0-0.1-0.1-0.1-0.1c-1.4-0.7-2.2-0.2-2.3-0.2c-0.4-0.4-0.5,0.2-0.6,0.1
		c-0.7-0.4-1.1,0.3-1.3,0.3c-0.2,0-0.5-0.4-0.8,0.4c-0.2,0.4-0.9,0.5-1,0.5c-0.3,0-0.4-0.2-0.4-0.2c0-0.1-0.1-0.2-0.1-0.2
		c0-0.1-0.1-0.1-0.1-0.2c-0.1-0.1-0.2-0.1-0.3-0.1c-0.2,0-0.4,0.2-0.4,0.5c0,0.1,0,0.2,0.1,0.3c0,0,0.1-0.1,0.2-0.1
		c0.2,0,0.3,0.1,0.3,0.3c0,0,0,0,0,0c0,0.4-0.5,0.7-0.5,0.7c-0.3,0.3-0.7-0.1-0.7-0.1c-0.2-0.2-0.4-0.2-0.4-0.2
		c-0.2,0-0.3,0.3-0.3,0.3s-0.1-0.2-0.3-0.3c0,0-0.2,0-0.4,0.2c0,0-0.4,0.4-0.7,0.1c0,0-0.6-0.4-0.5-0.7c0,0,0,0,0,0
		c0-0.2,0.1-0.3,0.3-0.3c0.1,0,0.2,0.1,0.2,0.1c0.1-0.1,0.1-0.2,0.1-0.3c0-0.2-0.2-0.4-0.4-0.5c-0.1,0-0.2,0-0.3,0.1
		c0,0-0.1,0.1-0.1,0.2c0,0.1-0.1,0.1-0.1,0.2c0,0-0.1,0.2-0.4,0.2c-0.1,0-0.9-0.2-1-0.5c-0.3-0.8-0.6-0.4-0.8-0.4
		c-0.2,0-0.6-0.7-1.3-0.3c-0.1,0.1-0.3-0.5-0.6-0.1c-0.1,0.1-0.8-0.4-1.8,0c-0.1-0.1-0.4-0.2-0.5-0.2c-0.2-0.1-0.4-0.2-0.6-0.3
		c-0.3-0.2-0.8-0.1-1.2-0.1c-0.1,0-0.3-0.1-0.4-0.2c-0.5-0.3-1-0.6-1.3-1c0-0.1-0.2-0.2-0.2-0.2c-0.1-0.2-0.2-0.3-0.3-0.6
		c-0.2-0.6,0.1-1.2,0.2-1.7c0-0.3,0-0.4,0.1-0.5c-0.4,0.1-1,0.1-1.7-0.1c0.2,0.6,0.2,1.2,0.1,1.7c0.3,0.2,0.4,0.5,0.5,0.7
		c0,0.3-0.1,0.6,0.1,0.8c0.2,0.3,0.8,0.7,1.1,0.9c0.1,0.1,1.7,1.3,1.9,1.3c0.2,0,0.4-0.1,0.5-0.1c0.1,0,0.1,0.1,0.2,0.1
		c0,0,0.1,0.1,0.3,0.3c-0.5,0.3-1.1,0.6-1.5,0.9c0,0-0.7,0.4-0.4,0.4c0,0,0.5,0,0.5,0.1c0,0-0.2,0.1-0.5,0.2
		c0.7,0.3,1.5,0.5,2.2,0.7c0.5-0.5,1.1-1,1.7-1.2c0,0,0.9,0,1.2-0.6c0.1-0.2,0.5,0.4,1.2-0.1c0.1,0,0.2,0.2,0.4,0.2
		c0.1,0-0.3,0.1-0.2,0.4c0,0-0.6,0-0.8,0.4c-0.1,0.1-1.4,0.1-2.6,1.1c0.2,0.1,0.5,0.1,0.7,0.2c0.4-0.3,0.9-0.5,1.4-0.5
		c0,0,0.7,0,1,0.9c0.5,0.1,0.9,0.1,1.4,0.2c0,0,0,0,0,0c0.1-0.1,0.8-0.4,0.5-0.8c0,0-0.2-0.2-0.4,0.1c0,0-0.2,0.2-0.2-0.1
		c0,0,0-0.1-0.1-0.2c0,0-0.1-0.2,0.1-0.1c0,0,0.2,0.1,0.4,0c0.2,0,0.4-0.2,0.4-0.4c0-0.2-0.2-0.5-0.4-0.5c0,0-0.1,0-0.1,0
		c0,0,0.1,0.1,0.1,0.1c0,0.1-0.1,0.2-0.2,0.2c-0.3-0.1-0.2-0.6,0.2-0.6c0,0,0.3,0,0.6,0.3c0,0,0.6,0.9,1.2,1.1c0,0-0.1,0.3,0.3,0.4
		c0,0,0,0.3,0.4,0.3c0,0,0.1,0.1,0.2,0.3c0.3,0,0.6,0,1,0c0.3,0,0.6,0,1,0c0.1-0.2,0.2-0.3,0.2-0.3c0.4,0,0.3-0.2,0.4-0.3
		c0.4-0.1,0.2-0.4,0.3-0.4c0.6-0.2,1.2-1.1,1.2-1.1c0.3-0.3,0.6-0.3,0.6-0.3c0.4,0,0.4,0.5,0.2,0.6c-0.1,0-0.2-0.1-0.2-0.2
		c0-0.1,0-0.1,0.1-0.1c0,0,0,0-0.1,0c-0.2,0-0.4,0.2-0.4,0.5c0,0.2,0.2,0.4,0.4,0.4c0.2,0,0.5,0,0.5,0c0.3-0.1,0.1,0.1,0.1,0.1
		c-0.1,0.1-0.1,0.2-0.1,0.2c-0.1,0.2-0.2,0.1-0.2,0.1c-0.3-0.3-0.4-0.1-0.4-0.1c-0.3,0.4,0.4,0.7,0.5,0.8c0,0,0,0,0,0
		c0.5,0,0.9-0.1,1.4-0.2c0.3-0.9,1-0.9,1-0.9c0.6,0,1,0.2,1.4,0.5c0.2,0,0.5-0.1,0.7-0.2c-1.2-1-2.5-1-2.6-1.1
		c-0.2-0.4-0.8-0.3-0.8-0.4c0.1-0.3-0.3-0.4-0.2-0.4c0.2-0.1,0.3-0.3,0.4-0.2c0.8,0.4,1.1-0.1,1.2,0.1c0.3,0.6,1.2,0.6,1.2,0.6
		c0.6,0.2,1.2,0.7,1.7,1.2c0.7-0.2,1.4-0.4,2-0.6c0,0,0,0,0,0c0,0,0-0.1,0-0.1c0,0,0,0,0,0l0,0c0-0.1-0.1-0.1-0.1-0.2
		c-0.2-0.3-0.4-0.6-0.5-0.7c0,0,0,0,0,0c0,0,0,0,0,0c0,0,0.5-0.8,0.8-0.2c0,0.1,0,0.2-0.3,0.2c0,0,0.4,0.6,0.5,1c0,0,0,0,0,0
		c0.2-0.1,0.3-0.1,0.3-0.1c0,0,0.1,0,0.1,0c-0.2-0.4-0.5-0.6-0.4-0.7c0.1,0,0.4,0.1,0.5-0.1c0-0.1,0.1-0.3,0.1-0.6
		c0.2,0.1,0.4,0.1,0.5,0.1c0.5,0,0.7-0.8,0.6-1c0.1,0,0.4-0.3,0.4-0.2c0.2,0.4,1,0.8,0.9-0.1c0.1,0.4,0.2,0.9,0.7,0.8
		c0.3-0.1,0.1-0.7,0.2-0.7c0.1,0.2,0.2,0.8,0.7,0.7c0.2-0.1,0.3-0.2,0.3-0.4c0-0.6-1.8-4-2-5.4c0,0-0.1,0-0.1,0
		c-0.2-0.1-0.2-0.4-0.2-0.6c0,0,0,0,0,0c-0.2,0-0.6-0.2-0.6-0.8c0-0.5,0.2-0.8,0.3-0.8c0,0,0,0,0,0.1c-0.1,0.4-0.2,0.9,0.1,1.2
		c0.1,0.1,0.2,0.1,0.3,0.1c0.1-0.2,0.2-0.3,0.2-0.3c0,0,0,0,0,0c-0.2,0.3-0.2,0.7,0,0.9c0.1,0.1,0.2,0.1,0.3,0.1
		c0.5-0.2,0.8-1.2,0.9-1.5c0.3,0.1-0.5,2,0.1,2.5c0.3,0,0.4-0.3,0.5-0.6c0.2,0.6-0.7,1.8,0,2.1c0.4,0.1,0.6-1,0.6-0.8
		c0.1,1.6-0.7,2.4-0.2,2.7c0.5,0.2,0.6-1.1,0.6-0.9c0,1.7-0.9,2.2-0.5,2.5c0.4,0.2,0.7-0.9,0.7-0.6c0,1.6-0.8,2-0.5,2.5
		c0.4,0.6,1.1-1,1.2-0.7c0,0.4-0.8,2.2-0.3,2.3c0.4,0.1,0.6-0.5,0.6-0.6c1.3-4.5,1.4-8.8,1.3-10.3c-0.1-2.3-0.3-4.3-0.9-6.2
		c-0.3-1.2-1-3.5-2.5-3.8c-0.7-0.2-1.3,0.5-1.2,1.1c0,0.5,0.4,0.8,0.2,1.3c-0.2,0.3-0.4,0.7-0.5,1.1c-0.1,0.4,0.2,0.5,0.1,0.9
		c-0.5-0.1-0.7,0.3-1.4,0.2c-0.6,0.3-1.3,0.1-1.3,0.1c0,0,0,0,0,0c0.7,0,1.3-0.2,1.4-0.5c0.1-0.5,0.1-1.1-0.3-1.4
		c-0.4,0.1-0.6,0.4-2,0.3c-1.1-0.1-1.4,0.1-1.6,0.8c-0.1-0.1-0.1-0.2-0.1-0.3c0-0.4,0.4-0.6,0.9-0.7c0.1-0.2,0.1-0.3,0.1-0.5
		c-0.2,0-0.3,0-0.6,0c-0.5,0.1-1.3,0.4-1.5,0.9c0,0.1,0,0.2,0,0.3c0,0.1,0,0.2,0,0.2c0,0.1,0,0.1,0.1,0.2c0.2,0.4,0.6,0.6,1.5,0.6
		c0,0,0,0,0,0c0,0-0.2,0.1-0.4,0c0,0-0.8,0-1.2-0.4c0,0-0.1,0.1-0.1,0.1c-0.2,0.2-0.6,0.5-1,0.5c-0.4,0-0.9-0.2-1-0.5
		c-0.5-0.7,0.2-2,0.1-2.5c0-1.3-1.7-0.7-2.4-0.4c-0.7,0.4-1.3,1-1.8,1.6c-0.3,0.3-0.6,0.7-0.7,1.1c0.2,0.1,0.9,0.4,1.4,0.4l0,0
		c0,0,0.1,0,0.2,0c0.3,0,0.7,0,1.1-0.3c0,0,0.2-0.1,0.4-0.1c0.2,0,0.3,0.1,0.4,0.2c0.1,0.1,1.2,0.9,1.5,1.2c0,0,0.2,0.1,0.2,0.3
		c0,0.1,0,0.2-0.1,0.4c-0.1,0.1-0.6,0.7-1,1.6c-0.1,0.1-0.1,0.3-0.1,0.4c-0.1,0.5-0.2,1.2,0.4,1.4c0,0,0.7,0.2,0.7-1
		c0,0,0.1,0.7,0.7,0.7c0.2,0,0.4-0.2,0.4-0.7c0,0,0,0,0,0c-0.1-0.5,0-1,0.1-1.6c0,0,0,0,0-0.1c0,0,0,0.1,0.1,0.3c0,0.3-0.2,3,2,4.8
		c0,0-0.9-0.5-1.6-1.6c-0.4,0.2-0.9,0.7-0.7,1.7c0.1,0.3,0.4,0.7,0.5,0.8c0,0,0,0,0,0c0,0-0.1,0.1-0.3-0.1c0,0-0.1-0.1-0.1-0.1
		c-0.1-0.1-0.1-0.2-0.2-0.3c-0.3-0.2-0.5-0.5-0.7-0.7l0,0c-0.2-0.4-0.1-1.4-1.1-1.4c0,0,0,0-0.1,0c0,0,0,0,0,0c0,0-0.1,0-0.2,0
		c0,0,0,0,0,0c-0.3-0.9-0.2-1.6-0.2-1.6c0.2-1.4,1.2-2.5,1.3-2.6c0,0,0.1-0.1,0.1-0.2c0-0.1,0-0.1-0.1-0.1l0,0
		c-0.4-0.2-1.4-1.1-1.5-1.2l0,0c-0.1-0.1-0.2-0.1-0.3-0.1c-0.1,0-0.2,0.1-0.2,0.1c-0.4,0.4-1,0.4-1.3,0.4c-0.1,0-0.2,0-0.2,0h0
		c-0.6,0-1.4-0.4-1.5-0.5c-1.1-0.4-1.9-0.5-2-0.5c-0.1,0-1,0-2,0.5C28,18.6,27.2,19,26.6,19h0c0,0-0.1,0-0.2,0
		c-0.3,0-0.8-0.1-1.3-0.4l0,0c0,0-0.1-0.1-0.2-0.1c-0.1,0-0.2,0-0.3,0.1l0,0c-0.1,0.1-1.2,0.9-1.5,1.2l0,0c0,0,0,0-0.1,0.1
		c0,0.1,0,0.1,0.1,0.2c0.1,0.1,1.1,1.3,1.3,2.6c0,0.1,0,0.3,0,0.6c-0.1-0.3-0.2-0.5-0.2-0.7c0-0.2-0.1-0.3-0.2-0.4v0
		c-0.1-0.2-0.4-0.4-0.6-0.5c-0.2-0.1-0.4-0.1-0.6-0.3c-0.3-0.2-0.6-0.4-0.8-0.8c0-0.7-0.4-1.2-0.4-1.2c0.1,0,0.5,0.3,0.6,1
		c0.5-0.5,0.8-1.3,0.9-2.1c0.4-0.5,1.4-0.3,1.9-0.2c0.1,0,0.3,0.1,0.4,0.1c0.1,0.1,0.1,0.3,0.3,0.3c0.2,0.1,0.4,0,0.6,0
		c0.1,0.1,0.1,0.2,0.2,0.3c0.1,0,0.1,0,0.1,0l0,0h0c0.6,0,1.4-0.4,1.4-0.4l0,0c0,0,0.1,0,0.1,0c-0.2-0.3-0.6-0.4-0.9-0.4
		c-0.4-0.1-0.6-0.4-1-0.5c-0.1,0-0.4-0.1-0.5,0c-0.8,0.1-1.4-0.2-2.2-0.3c-0.8-0.1-0.8,0.5-1,0.9c-0.1,0.2-0.2,0.3-0.3,0.5
		c-0.2,0.2-0.4,0.2-0.7,0.4c0,0,0,0,0,0c-0.1-0.3-0.2-0.7-0.3-1c0,0,0,0,0,0c0,0,0-0.1-0.1-0.1c-0.4-0.6-0.9-1.1-1.8-1.3
		c-0.2-0.1-0.2-0.1-0.3-0.2c-0.1-0.1,0-0.2,0-0.3c0.3-0.1,0.7-0.1,1-0.2c0.7-0.3,0.5-0.9,0.2-1c-0.4-0.1-1-0.2-1.1-0.3
		c-0.2-0.1-0.3-0.4-0.6-0.5c-0.2-0.1-0.4-0.1-0.6,0c-0.2,0-0.3,0.2-0.4,0.1c0.2-0.2,0.4-0.3,0.8-0.4c-0.3-0.1-0.2-0.6-0.5-0.7
		c-0.1,0-0.3,0-0.5,0.1c0-0.2-0.1-0.7-0.4-0.9c-0.2-0.1-0.3,0.1-0.3,0.2c0,0.1,0.4,0.3,0.4,0.8c-0.1,0-0.1,0.1-0.2,0.1
		c0-0.2-0.2-0.6-0.4-0.7c-0.2-0.1-0.3,0.1-0.3,0.2c0,0.1,0.3,0.3,0.4,0.7c-0.1,0.1-0.2,0.1-0.2,0.2c-0.5-0.1-0.6-0.5-0.7-0.5
		c-0.1,0-0.4,0-0.2,0.3c0.1,0.3,0.5,0.4,0.7,0.5c-0.1,0.1-0.1,0.1-0.2,0.2c-0.6-0.1-0.7-0.5-0.8-0.5c-0.1,0-0.4,0-0.2,0.3
		c0.2,0.3,0.7,0.5,0.8,0.5c-0.1,0.2-0.1,0.3-0.1,0.4c-0.4-0.1-1.2,0.2-1.1,0.7c0.1,0.1,0.7-0.3,1.1-0.1c0.3,0.5,0.8,0.5,0.9,0.6
		c0.2,0.1,0.2,0.4,0.3,0.6c0.1,0.4,0.4,0.8,0.7,1.1c0.3,0.4,0.5,0.8,0.8,1.2c0,0.1,0.1,0.2,0,0.3c-0.3,0.5-1.3,1.1-1.7,1.5
		c-0.4,0.4-4.1,3.2-4.6,4.5c-0.1,0.3-0.2,0.6-0.1,1c-0.2,0.1-0.6,0-0.7-0.1c-0.2-0.3,0.3-0.6,0.1-1c-0.1-0.2-0.3-0.2-0.4-0.2
		c-0.3,0.1-0.3,0.7-0.2,1c0,0.1,0.2,0.2,0.1,0.3c-0.1,0.1-0.2-0.1-0.2-0.3c-0.1,0.1-0.2,0.2-0.1,0.3c0.1,0.3,0.4,0.3,0.5,0.4
		c0,0.1-0.2,0.2-0.3,0.1c-0.2,0.3,0,0.4,0.1,0.4c0.2,0,0.5-0.2,0.6-0.2c0.1,0.2,0,0.2-0.3,0.3c0.4,0.5,0.7-0.3,1.1-0.2
		c0.1,0,1.3,1.1,1.1,2c0,0-0.1,0.2-0.1,0.2c-0.3,0.3-0.7,0.6-1,0.9c-0.6,0.4,0.6,2.9,0.5,4.1c-0.1,0.5,0.4,0.4,0.7,1.2
		c-0.3,0-0.6,0.1-0.8,0.3c0,0,0,0,0,0.1l0,0c-0.1,0.1-0.1,0.2-0.1,0.3c0,0.3,0.3,0.6,0.6,0.6c0.3,0,0.6-0.3,0.6-0.6c0,0,0-0.1,0-0.1
		c0.1,0,0.3,0,0.5,0.1l0.5,0.3c0,0-1.9,1.6-5,0.7c0,0-1.4-0.5-1-1.7c0,0,0.1-0.2,0.3-0.3c0,0.2,0.1,0.3,0.3,0.4
		c0.1,0.1,0.3,0.1,0.4,0.1c0.4,0,0.7-0.3,0.7-0.7c0-0.2-0.1-0.4-0.2-0.5c0,0-0.1-0.1-0.1-0.1c0,0,0,0,0,0c0,0,0,0,0,0
		c-0.2-0.1-0.5-0.2-1-0.1c0,0-1.4,0.4-0.9,1.9c0,0-0.9-0.2-1.3,0.2c0,0-0.1,0.1-0.1,0.4c0,0,0,0,0,0c0,0,0,0,0,0
		c0,0.1,0,0.2,0.1,0.3c0.1,0.1,0.3,0.2,0.4,0.2c0.2,0,0.3-0.1,0.4-0.2c0,0,0,0,0,0c0-0.1,0.1-0.1,0.3,0.1c0,0,1.3,1.4,3.2,1.2
		c0,0,0.1,1,0.7,1.1c0,0,0.1,0,0.1,0c0.2,0,0.3-0.1,0.3-0.3c0-0.2-0.1-0.3-0.3-0.3c0,0,0,0,0,0c0,0-0.1-0.3,0-0.5
		c0,0,2.1-0.3,3.4-1.4c0,0,0.9,0.3,1.6,0.3c0,0,0.1,0.2-0.3,0.3c0,0-0.5,0-0.5,0.2c0,0,0,0.2,0.4,0.2c0,0-0.1,0.2,0.3,0.4
		c0,0,0.2,0.1,0.1,0.3c0,0-0.4,0.2-0.3,0.5c0,0,0.1,0.3,0.7,0.2c0,0,0.2,0,0,0.2c0,0-0.3,0.3,0.2,0.6c0,0,0.4,0.2,0.6-0.2
		c0,0,0.1-0.2,0.3,0c0,0,1.2,0.6,1.9-0.4c0,0,0-0.1,0.2,0.1c0,0,0.6,0.8,2.3,0.8c0.1,0.2,0.3,0.3,0.6,0.3c0.3,0,0.6-0.2,0.6-0.5
		c0.2,0,1-0.1,1.8-0.6c0,0,0.3-0.2,0.6-0.3c0,0.5,0.4,0.9,0.9,0.9c0.5,0,0.9-0.4,0.9-0.9C28.1,38.7,27.8,38.4,27.4,38.3z M21.6,31.6
		C21.6,31.6,21.6,31.6,21.6,31.6C21.6,31.6,21.6,31.6,21.6,31.6C21.6,31.6,21.6,31.6,21.6,31.6c-0.1,0.1-0.2,0.1-0.2,0.1
		c-0.1,0-0.2,0-0.3,0c0,0.1,0,0.1,0.1,0.2c0,0,0,0,0,0c0,0,0,0,0,0c0,0,0.1,0,0.1,0c0.1,0,0.1,0,0.1,0.1c0,0.1-0.2,0.2-0.3,0.2
		c-0.2,0-0.3-0.2-0.4-0.4c0,0,0,0-0.1,0c0,0,0,0,0,0c-0.2-0.1-0.4-0.1-0.7-0.1c0-0.5,1.3-0.1,1.3-0.1C21.4,31.5,21.5,31.5,21.6,31.6
		C21.6,31.5,21.6,31.6,21.6,31.6z M40.5,32.6L40.5,32.6C40.5,32.7,40.5,32.7,40.5,32.6c-0.3,0.1-0.8-0.3-0.8-0.3
		c-0.1,0-0.3-0.2-0.5-0.1h0l0,0c-0.2,0.1-0.3,0.3-0.4,0.4c0,0,0-0.1,0-0.1c0,0,0,0,0,0c0,0,0-0.1,0-0.1c0,0,0,0,0,0c0,0,0-0.1,0-0.1
		c0,0,0,0,0,0c0,0,0-0.1,0-0.1c0,0,0,0,0,0c0,0,0,0,0,0c0,0,0,0,0.1,0c0,0,0,0,0,0c0.1-0.1,0.2-0.1,0.4-0.1v0c0.2,0,0.4,0.1,0.5,0.2
		c0.2,0.2,0.5,0.2,0.7,0.2C40.6,32.4,40.5,32.5,40.5,32.6z M45.6,17.3c0.1-0.4,0.6-0.8,0.6-1c0-0.2-0.3-0.5-0.3-0.8
		c0-0.5,0.3-1,0.8-0.9c0.3,0.1,0.5,0.3,0.7,0.6c0.1,0.1,0.2,0.2,0.2,0.2c0.6,0.7,1,1.9,1.3,2.9c0.8,2.9,1.2,7.4,0.2,12.4
		c-0.1,0.4-0.3,1.5-0.3,1.4c0.9-8.3,0.4-10.3,0.3-10.3c-0.1,0-0.3,1-0.7,0.7c-0.4-0.3,1-2.1,0.4-3.1c-0.1-0.2-0.3,0.2-0.5,0.2
		c-0.6-0.2,0.3-1.8,0.2-1.9c-0.1-0.1-0.6-0.2-0.6-0.8c0-0.3,0.2-0.5,0-0.7c-0.2-0.2-0.1,0.2-0.3,0.1c-0.3-0.3,0-0.6-0.2-0.9
		c-0.1-0.1-0.3,0.2-0.4,0.1c-0.2-0.1,0.1-0.4-0.1-0.5c-0.3,0-0.7,0.3-0.6,0.8c0,0.2,0.3,0.4,0.3,0.6c0,0.2-0.3,0.5-0.3,0.6
		c-0.4,0.9,0.3,1.1,0.2,1.4c0,0.2-0.3,0.2-0.5,0.2C45.5,18.4,45.5,17.6,45.6,17.3z M44.4,19c0.1,0,0.3,0,0.4-0.1
		c0.1,0,0.2-0.2,0.4-0.2c0.1,0.1-0.1,0.1-0.1,0.2c-0.1,0.1-0.5,0.3-0.7,0.3c-0.4,0.1-0.8,0-1-0.3C43.7,18.9,43.9,19.1,44.4,19z
		 M36.8,15.9C36.8,15.9,36.7,15.9,36.8,15.9c-0.4-0.2-1.1-0.2-1.6,0.1c-0.3,0.2-0.6,0.5-0.7,0.6c-0.1,0,0.6-0.9,1.6-1
		C36.8,15.5,36.8,15.9,36.8,15.9z M39,18.8c-0.1,0.3-0.4,0.5-0.7,0.6c-0.6,0.1-1.2-0.3-1.2-0.4c0-0.1,0.5,0.2,1,0.2
		C38.5,19.2,38.8,18.9,39,18.8C39,18.7,39.1,18.8,39,18.8z M40,28.1c0.5,0.2,1.2,0.1,1.5-0.2c0,0,0.1,0,0.1,0c0.1,0.1,0,0.4-0.6,0.5
		c-1.1,0.1-1.7-0.9-1.7-0.9C39.3,27.6,39.6,28,40,28.1z M37.3,26.2C37.3,26.2,37.3,26.2,37.3,26.2C37.3,26.2,37.3,26.2,37.3,26.2
		C37.3,26.3,37.3,26.3,37.3,26.2c0,0.1,0,0.1,0,0.1c0,0,0,0,0,0.1c0,0,0,0,0,0c0,0.1,0,0.2,0,0.3c0,0,0,0,0,0.1v0c0,0.1,0,0.2,0,0.3
		c0,0.2,0,0.5-0.1,0.6c0,0,0,0-0.1,0.1c0,0,0,0-0.1,0.1c0,0,0,0,0,0c0,0,0,0-0.1,0c0,0,0,0,0,0c0,0,0,0-0.1,0c0,0,0,0,0,0
		c0,0,0,0-0.1,0c0,0,0,0,0,0c0,0,0,0-0.1,0c0,0,0,0,0,0c0,0,0,0-0.1,0c0,0,0,0,0,0c0,0,0,0-0.1-0.1c0,0,0,0,0,0c0,0-0.1-0.2,0.1-0.3
		c0,0,0.1,0.1,0.1,0.1c0,0,0,0,0,0c0,0,0,0,0.1,0c0,0,0,0,0,0c0,0,0,0,0.1,0c0,0,0,0,0,0c0,0,0,0,0,0c0,0,0,0,0,0c0,0,0,0,0,0
		c0,0,0,0,0,0c0,0,0,0,0-0.1c0,0,0,0,0,0c0,0,0,0,0-0.1c0,0,0,0,0,0c0,0,0,0,0-0.1c0-0.4,0-0.8,0.1-1c0,0,0,0,0,0c0,0,0,0,0,0
		C37.2,26.2,37.2,26.2,37.3,26.2C37.2,26.2,37.2,26.2,37.3,26.2C37.2,26.2,37.3,26.2,37.3,26.2C37.3,26.2,37.3,26.2,37.3,26.2z
		 M36.1,24.8C36.1,24.8,36.1,24.8,36.1,24.8c0.1-0.1,0.2-0.1,0.3-0.1c0.1,0,0.1,0,0.2,0c0,0,0,0,0,0c0.1,0,0.1,0,0.2,0
		c0,0,0.2,0.2,0.2,0.5c0,0.1,0.1,0.4,0.2,0.5c0.1,0.1,0.1,0.3-0.2,0.3c0,0,0,0,0,0c-0.3-0.1-0.6-0.5-0.5-1c-0.1,0-0.1,0-0.2,0
		c0,0,0,0,0,0c0,0-0.1,0-0.1,0c0,0,0,0,0,0c0,0,0,0-0.1,0c0,0,0,0,0,0c-0.1,0.1-0.1,0.2-0.2,0.2C35.8,25,35.9,24.9,36.1,24.8z
		 M24.4,25.8c0.8-1.4,0.7-2.4,0.7-2.6c0-1.6-1-2.8-1.1-2.9c-0.1-0.1-0.1-0.2-0.1-0.3c0-0.1,0.1-0.2,0.2-0.2c0.2-0.2,0.7-0.5,0.9-0.6
		l0.1-0.1c0,0,0.1,0,0.1,0c0.1,0,0.1,0,0.2,0.1c0.2,0.2,0.6,0.4,1.2,0.4c0.1,0,0.2,0,0.3,0c0.3,0,0.9-0.3,0.9-0.3
		c0.2-0.1,0.4-0.2,0.5-0.2l0,0c0.9-0.4,1.6-0.4,1.8-0.4c0.2,0,1,0,1.8,0.4l0,0c0.1,0,0.3,0.1,0.5,0.2c0,0,0.5,0.3,0.9,0.3
		c0.1,0,0.2,0,0.3,0c0.6,0,1-0.3,1.2-0.4c0.1-0.1,0.1-0.1,0.2-0.1c0,0,0.1,0,0.1,0c0,0,0,0,0.1,0.1c0.2,0.1,0.7,0.4,0.9,0.6
		c0,0,0.1,0.1,0.1,0.2c0,0.1,0,0.2-0.1,0.3c-0.1,0.1-1.1,1.3-1.1,2.9c0,0.2-0.1,1.2,0.7,2.6c0,0.1,0.9,1.7-0.1,3.1
		c-0.1,0.1-0.8,1.3-2.8,1.3c-0.2,0-1.8,0-2.3,1.1c0,0,0,0,0,0c-0.1,0.1-0.3,0.4-0.4,0.6c0,0-0.1,0.1-0.1,0.1c0,0-0.1,0-0.1-0.1
		c-0.1-0.2-0.3-0.5-0.4-0.6c0,0,0,0,0,0c-0.5-1-2.2-1.1-2.3-1.1c-2,0-2.8-1.2-2.9-1.3C23.5,27.5,24.4,25.8,24.4,25.8z M23.9,24
		c0.1,0.1,0.2,0.4,0.2,0.7c0,0,0,0.1,0,0.1c0,0,0,0.1,0,0.1c0,0,0,0.1,0,0.1c0,0,0,0.1,0,0.1c0,0,0,0,0,0.1c0,0,0,0.1,0,0.1
		c0,0,0,0.1,0,0.1c0,0,0,0.1,0,0.1c0,0,0,0,0,0.1c0,0,0,0.1,0,0.1c0,0,0,0.1,0,0.1c0,0,0,0.1,0,0.1c0,0,0,0,0,0.1c0,0,0,0.1,0,0.1
		c0,0,0,0.1,0,0.1c0,0,0,0,0,0.1c0,0,0,0,0,0.1c0,0,0,0,0,0.1c0,0,0,0.1-0.1,0.1c0,0,0,0,0,0c0,0,0,0,0,0.1c0,0,0,0,0,0
		c0,0,0,0.1-0.1,0.1c0,0,0,0,0,0c0,0,0,0-0.1,0.1c0,0,0,0,0,0c0,0-0.1,0-0.1,0.1c0,0,0,0,0,0c0,0-0.1,0-0.1,0c0,0,0,0,0,0
		c0,0-0.1,0-0.1,0c0,0,0-0.1,0-0.1c0-0.1,0.1-0.2,0.2-0.4c0.1-0.1,0-0.2,0.1-0.3c0.1,0,0.2,0,0.3-0.1c-0.2-0.2-0.2-0.5,0-0.7
		C24.2,24.9,23.8,24.1,23.9,24z M23.8,22.8c-0.2,0-0.2-0.7-1.1-0.5c-0.5,0.2-0.8,0.1-1.1,0C22.9,21.6,23.9,22.3,23.8,22.8z
		 M16.7,15.8c-0.2-0.4,0.5-1,0.7-1.1c0.4-0.1,0.7,0.1,1.1,0.2c0.3,0,0.5,0,0.7,0c0.5,0,0.3,0.4,0.3,0.4c-0.4,0.1-0.6-0.2-0.9-0.2
		c-0.2,0-0.5,0.1-0.7,0.1c-0.2,0-0.4-0.2-0.6,0c0,0-0.3,0.2-0.2,0.5C17,15.8,16.8,15.9,16.7,15.8z M17.1,15.7
		c0.5,0.2,0.6-0.5,0.7-0.3C18,15.7,17.5,16.2,17.1,15.7z M18.1,17.2c0.8,0.1,1.6,0.1,2.2,0.4c0,0,0,0,0.1,0c0.2,0.1,0.6,0.4,0.8,1.1
		c-0.7-0.4-0.9-0.5-1.5-0.7C19,17.7,18.4,17.6,18.1,17.2z M14,35.3C14,35.3,14,35.3,14,35.3c-0.1-0.1-0.2-0.1-0.3-0.2
		c-0.1,0.1,0.1,0.3,0.2,0.4c0,0-0.1,0.1-0.1,0.1l0,0c-0.1,0-0.1,0-0.2,0h0c0,0,0,0,0,0c-0.2-0.1-0.2-0.3-0.2-0.5
		c0-0.1-0.1-0.3-0.3-0.5c0.3-0.2,0.9,0.3,0.9,0.4c0,0,0,0,0,0c0,0,0,0,0,0c0.1,0.1,0.2,0.1,0.3,0.2c0,0,0,0,0.1,0.1
		C14.2,35.4,14.1,35.3,14,35.3z"/>
</g>
<g>
	<path fill="#FFFFFF" d="M74.1,15.1C74.1,13,74,10.8,74,8.7h0c-0.2,1-0.4,1.9-0.6,2.5l-1,3.9h-2.1l-1.2-5c-0.1-0.5-0.2-1-0.3-1.4
		h-0.1l-0.1,6.4H67l0.3-8.1H70c0.2,0.6,1,4,1.4,6.6h0.1c0.5-2.6,1.5-6,1.7-6.6h2.4l0.3,8.1H74.1z"/>
	<path fill="#FFFFFF" d="M77.7,15.1v-4.7l-0.7-0.1v-1h2.2v5.8H77.7z M77.7,6.9h1.6v1.4h-1.6V6.9z"/>
	<path fill="#FFFFFF" d="M84.3,15.1v-3.5c0-0.9-0.3-1.3-1-1.3c-0.4,0-0.7,0.2-1,0.4v4.4h-1.6V9.3h1.1L82,10c0.3-0.4,1-0.8,1.8-0.8
		c1.5,0,2.1,0.9,2.1,2.3v3.6H84.3z"/>
	<path fill="#FFFFFF" d="M87.6,15.1v-4.7L87,10.3v-1h2.2v5.8H87.6z M87.6,6.9h1.6v1.4h-1.6V6.9z"/>
	<path fill="#FFFFFF" d="M91.9,10.8c0,0.9,2.5,0.6,2.5,2.5c0,1.1-0.8,1.9-2.3,1.9c-0.7,0-1.4-0.2-1.7-0.4l0.3-1.1
		c0.3,0.2,0.8,0.4,1.4,0.4c0.5,0,0.9-0.3,0.9-0.6c0-1-2.5-0.7-2.5-2.7c0-0.9,0.7-1.6,2.2-1.6c0.6,0,1.2,0.1,1.6,0.3l-0.2,1.1
		c-0.4-0.2-0.9-0.3-1.4-0.3C92.2,10.3,91.9,10.5,91.9,10.8z"/>
	<path fill="#FFFFFF" d="M97.8,15.3c-1,0-1.8-0.6-1.8-2.1v-2.8h-0.9V9.3h0.9v-1l1.5-0.5v1.5h1.6v1.1h-1.6v2.9c0,0.4,0.2,0.7,0.6,0.7
		c0.3,0,0.7-0.1,0.9-0.2l0.2,1.1C99,15,98.5,15.3,97.8,15.3z"/>
	<path fill="#FFFFFF" d="M101.4,12.6c0,0.9,0.5,1.4,1.5,1.4c0.6,0,1.2-0.2,1.7-0.5l0.3,1.1c-0.5,0.3-1.3,0.6-2.2,0.6
		c-1.8,0-2.9-1.1-2.9-3c0-1.8,0.9-3,2.7-3c1.8,0,2.5,1.3,2.5,2.8v0.7H101.4z M102.5,10.3c-0.8,0-1.1,0.7-1.1,1.4h2.1
		C103.6,11,103.3,10.3,102.5,10.3z"/>
	<path fill="#FFFFFF" d="M109.5,10.6c-0.2-0.1-0.5-0.1-0.7-0.1c-0.4,0-0.8,0.2-1,0.4v4.2h-1.5V9.3h1.1c0.1,0.3,0.1,0.5,0.2,0.8h0
		c0.2-0.4,0.7-0.9,1.4-0.9c0.3,0,0.5,0,0.7,0.1C109.6,9.7,109.6,10.2,109.5,10.6z"/>
	<path fill="#FFFFFF" d="M111,15.1v-4.7l-0.7-0.1v-1h2.2v5.8H111z M110.9,6.9h1.6v1.4h-1.6V6.9z"/>
	<path fill="#FFFFFF" d="M119.1,12.2c0,2-1,3-2.7,3c-1.7,0-2.7-1-2.7-3c0-1.7,1-3,2.7-3C118.2,9.2,119.1,10.5,119.1,12.2z
		 M117.5,12.2c0-1.4-0.4-1.9-1.1-1.9c-0.7,0-1.1,0.5-1.1,1.9c0,1.4,0.4,1.9,1.1,1.9C117.2,14.1,117.5,13.6,117.5,12.2z"/>
	<path fill="#FFFFFF" d="M69.5,27.1c-1.1,0-2-0.4-2.6-0.9l0.6-1.2c0.5,0.4,1.3,0.7,2,0.7c0.7,0,1.2-0.5,1.2-1.1
		c0-1.7-3.7-0.9-3.7-3.7c0-1.2,1-2.2,2.8-2.2c0.9,0,1.7,0.2,2.4,0.6l-0.5,1.2c-0.4-0.3-1.1-0.5-1.9-0.5c-0.2,0-0.3,0-0.4,0.1
		c-0.6,0.1-0.8,0.4-0.8,0.7c0,1.4,3.8,0.9,3.8,3.6C72.4,25.9,71.3,27.1,69.5,27.1z"/>
	<path fill="#FFFFFF" d="M74.9,24.5c0,0.9,0.5,1.4,1.5,1.4c0.6,0,1.2-0.2,1.7-0.5l0.3,1.1c-0.5,0.3-1.3,0.6-2.2,0.6
		c-1.8,0-2.9-1.1-2.9-3c0-1.8,0.9-3,2.7-3c1.8,0,2.5,1.3,2.5,2.8v0.7H74.9z M76,22.2c-0.8,0-1.1,0.7-1.1,1.4h2.1
		C77.1,22.9,76.8,22.2,76,22.2z"/>
	<path fill="#FFFFFF" d="M84.4,26.6c-0.3,0.2-1.1,0.5-2,0.5c-1.7,0-2.8-1-2.8-3c0-1.9,1-3,2.8-3c0.8,0,1.4,0.2,2,0.5l-0.4,1.1
		c-0.4-0.2-1-0.4-1.5-0.4c-0.8,0-1.3,0.5-1.3,1.9c0,1.3,0.5,1.9,1.3,1.9c0.6,0,1.2-0.2,1.6-0.4L84.4,26.6z"/>
	<path fill="#FFFFFF" d="M88.7,22.5c-0.2-0.1-0.5-0.1-0.7-0.1c-0.4,0-0.8,0.2-1,0.4V27h-1.5v-5.8h1.1c0.1,0.3,0.1,0.5,0.2,0.8h0
		c0.2-0.4,0.7-0.9,1.4-0.9c0.3,0,0.5,0,0.7,0.1C88.7,21.6,88.7,22.1,88.7,22.5z"/>
	<path fill="#FFFFFF" d="M91,24.5c0,0.9,0.5,1.4,1.5,1.4c0.6,0,1.2-0.2,1.7-0.5l0.3,1.1c-0.5,0.3-1.3,0.6-2.2,0.6
		c-1.8,0-2.9-1.1-2.9-3c0-1.8,0.9-3,2.7-3c1.8,0,2.5,1.3,2.5,2.8v0.7H91z M92.1,22.2c-0.8,0-1.1,0.7-1.1,1.4h2.1
		C93.1,22.9,92.9,22.2,92.1,22.2z"/>
	<path fill="#FFFFFF" d="M98,27.1c-1,0-1.8-0.6-1.8-2.1v-2.8h-0.9v-1.1h0.9v-1l1.5-0.5v1.5h1.6v1.1h-1.6v2.9c0,0.4,0.2,0.7,0.6,0.7
		c0.3,0,0.7-0.1,0.9-0.2l0.2,1.1C99.1,26.9,98.6,27.1,98,27.1z"/>
	<path fill="#FFFFFF" d="M104.1,27l-0.2-0.7c-0.3,0.4-0.9,0.8-1.7,0.8c-1.2,0-2-0.7-2-1.9c0-1.1,0.8-1.7,2.2-1.7h1.2v-0.3
		c0-0.7-0.4-1-1-1c-0.7,0-1.3,0.2-1.8,0.4l-0.4-1.1c0.6-0.2,1.4-0.5,2.3-0.5c1.7,0,2.4,0.8,2.4,2.2V27H104.1z M103.7,24.5h-1
		c-0.7,0-1,0.3-1,0.7c0,0.5,0.3,0.9,0.9,0.9c0.4,0,0.7-0.2,1-0.4V24.5z"/>
	<path fill="#FFFFFF" d="M109.8,22.5c-0.2-0.1-0.5-0.1-0.7-0.1c-0.4,0-0.8,0.2-1,0.4V27h-1.5v-5.8h1.1c0.1,0.3,0.1,0.5,0.2,0.8h0
		c0.2-0.4,0.7-0.9,1.4-0.9c0.3,0,0.5,0,0.7,0.1C109.8,21.6,109.8,22.1,109.8,22.5z"/>
	<path fill="#FFFFFF" d="M110.5,20.3l-0.2-0.9l3-0.8c0,0.2,0.2,1,0.2,1.1L110.5,20.3z M111.2,27v-4.7l-0.7-0.1v-1h2.2V27H111.2z"/>
	<path fill="#FFFFFF" d="M117.8,27l-0.2-0.7c-0.3,0.4-0.9,0.8-1.7,0.8c-1.2,0-2-0.7-2-1.9c0-1.1,0.8-1.7,2.2-1.7h1.2v-0.3
		c0-0.7-0.4-1-1-1c-0.7,0-1.3,0.2-1.8,0.4l-0.4-1.1c0.6-0.2,1.4-0.5,2.3-0.5c1.7,0,2.4,0.8,2.4,2.2V27H117.8z M117.4,24.5h-1
		c-0.7,0-1,0.3-1,0.7c0,0.5,0.3,0.9,0.9,0.9c0.4,0,0.7-0.2,1-0.4V24.5z"/>
	<path fill="#FFFFFF" d="M73.5,38.3c-1.1,0.5-2,0.7-3,0.7c-2.4,0-3.5-1.7-3.5-4.2c0-2.4,1.2-4.1,3.7-4.1c1.2,0,2,0.3,2.6,0.7
		l-0.7,1.2c-0.5-0.3-1.1-0.5-2-0.5c-1.4,0-2.1,1.1-2.1,2.7c0,1.9,0.7,2.9,2,2.9c0.5,0,1-0.1,1.4-0.3v-1.5h-1.1l-0.1-1.2h2.6V38.3z"
		/>
	<path fill="#FFFFFF" d="M76.1,36.4c0,0.9,0.5,1.4,1.5,1.4c0.6,0,1.2-0.2,1.7-0.5l0.3,1.1c-0.5,0.3-1.3,0.6-2.2,0.6
		c-1.8,0-2.9-1.1-2.9-3c0-1.8,0.9-3,2.7-3c1.8,0,2.5,1.3,2.5,2.8v0.7H76.1z M77.2,34.1c-0.8,0-1.1,0.7-1.1,1.4h2.1
		C78.2,34.7,78,34.1,77.2,34.1z"/>
	<path fill="#FFFFFF" d="M84.5,38.9v-3.5c0-0.9-0.3-1.3-1-1.3c-0.4,0-0.7,0.2-1,0.4v4.4h-1.6v-5.8h1.1l0.2,0.7
		c0.3-0.4,1-0.8,1.8-0.8c1.5,0,2.1,0.9,2.1,2.3v3.6H84.5z"/>
	<path fill="#FFFFFF" d="M88.7,36.4c0,0.9,0.5,1.4,1.5,1.4c0.6,0,1.2-0.2,1.7-0.5l0.3,1.1C91.7,38.7,90.9,39,90,39
		c-1.8,0-2.9-1.1-2.9-3c0-1.8,0.9-3,2.7-3c1.8,0,2.5,1.3,2.5,2.8v0.7H88.7z M89.8,34.1c-0.8,0-1.1,0.7-1.1,1.4h2.1
		C90.8,34.7,90.6,34.1,89.8,34.1z"/>
	<path fill="#FFFFFF" d="M96.8,34.4c-0.2-0.1-0.5-0.1-0.7-0.1c-0.4,0-0.8,0.2-1,0.4v4.2h-1.5v-5.8h1.1c0.1,0.3,0.1,0.5,0.2,0.8h0
		c0.2-0.4,0.7-0.9,1.4-0.9c0.3,0,0.5,0,0.7,0.1C96.8,33.5,96.8,33.9,96.8,34.4z"/>
	<path fill="#FFFFFF" d="M101.3,38.9l-0.2-0.7c-0.3,0.4-0.9,0.8-1.7,0.8c-1.2,0-2-0.7-2-1.9c0-1.1,0.8-1.7,2.2-1.7h1.2v-0.3
		c0-0.7-0.4-1-1-1c-0.7,0-1.3,0.2-1.8,0.4l-0.4-1.1c0.6-0.2,1.4-0.5,2.3-0.5c1.7,0,2.4,0.8,2.4,2.2v3.7H101.3z M100.9,36.4h-1
		c-0.7,0-1,0.3-1,0.7c0,0.5,0.3,0.9,0.9,0.9c0.4,0,0.7-0.2,1-0.4V36.4z"/>
	<path fill="#FFFFFF" d="M103.7,37.4v-6.7h1.5v6.6c0,0.5,0.3,0.6,0.9,0.6v1.1c0,0-0.5,0.1-0.9,0.1C104.1,39,103.7,38.4,103.7,37.4z"
		/>
	<path fill="#FFFFFF" d="M113.6,33.5c-0.1-0.3-0.1-0.6-0.1-1.1v-1.8h1.5v8.2h-1.3l-0.2-0.6c-0.2,0.4-0.8,0.8-1.5,0.8
		c-1.3,0-2.4-1-2.4-3c0-1.9,1.1-3,2.5-3C112.8,33,113.3,33.2,113.6,33.5z M113.4,34.4c-0.2-0.1-0.6-0.3-1.1-0.3
		c-0.7,0-1.2,0.5-1.2,1.9c0,1.4,0.4,1.9,1.2,1.9c0.4,0,0.8-0.2,1.1-0.5V34.4z"/>
	<path fill="#FFFFFF" d="M117.7,36.4c0,0.9,0.5,1.4,1.5,1.4c0.6,0,1.2-0.2,1.7-0.5l0.3,1.1c-0.5,0.3-1.3,0.6-2.2,0.6
		c-1.8,0-2.9-1.1-2.9-3c0-1.8,0.9-3,2.7-3c1.8,0,2.5,1.3,2.5,2.8v0.7H117.7z M118.8,34.1c-0.8,0-1.1,0.7-1.1,1.4h2.1
		C119.9,34.7,119.6,34.1,118.8,34.1z"/>
	<path fill="#FFFFFF" d="M125.1,37.4v-6.7h1.5v6.6c0,0.5,0.3,0.6,0.9,0.6v1.1c0,0-0.5,0.1-0.9,0.1C125.6,39,125.1,38.4,125.1,37.4z"
		/>
	<path fill="#FFFFFF" d="M132.3,38.9l-0.2-0.7c-0.3,0.4-0.9,0.8-1.7,0.8c-1.2,0-2-0.7-2-1.9c0-1.1,0.8-1.7,2.2-1.7h1.2v-0.3
		c0-0.7-0.4-1-1-1c-0.7,0-1.3,0.2-1.8,0.4l-0.4-1.1c0.6-0.2,1.4-0.5,2.3-0.5c1.7,0,2.4,0.8,2.4,2.2v3.7H132.3z M131.8,36.4h-1
		c-0.7,0-1,0.3-1,0.7c0,0.5,0.3,0.9,0.9,0.9c0.4,0,0.7-0.2,1-0.4V36.4z"/>
	<path fill="#FFFFFF" d="M69.6,48h-0.9v2.8h-1.6v-8.1h2.4c1.6,0,3.1,0.8,3.1,2.5C72.7,46.8,71.5,48,69.6,48z M69.6,44h-0.8v2.7h0.8
		c0.9,0,1.5-0.6,1.5-1.4C71,44.5,70.4,44,69.6,44z"/>
	<path fill="#FFFFFF" d="M76.9,46.3c-0.2-0.1-0.5-0.1-0.7-0.1c-0.4,0-0.8,0.2-1,0.4v4.2h-1.5V45h1.1c0.1,0.3,0.1,0.5,0.2,0.8h0
		c0.2-0.4,0.7-0.9,1.4-0.9c0.3,0,0.5,0,0.7,0.1C76.9,45.4,76.9,45.8,76.9,46.3z"/>
	<path fill="#FFFFFF" d="M79.2,48.3c0,0.9,0.5,1.4,1.5,1.4c0.6,0,1.2-0.2,1.7-0.5l0.3,1.1c-0.5,0.3-1.3,0.6-2.2,0.6
		c-1.8,0-2.9-1.1-2.9-3c0-1.8,0.9-3,2.7-3c1.8,0,2.5,1.3,2.5,2.8v0.7H79.2z M80.2,46c-0.8,0-1.1,0.7-1.1,1.4h2.1
		C81.3,46.6,81.1,46,80.2,46z"/>
	<path fill="#FFFFFF" d="M85.3,46.5c0,0.9,2.5,0.6,2.5,2.5c0,1.1-0.8,1.9-2.3,1.9c-0.7,0-1.4-0.2-1.7-0.4l0.3-1.1
		c0.3,0.2,0.8,0.4,1.4,0.4c0.5,0,0.9-0.3,0.9-0.6c0-1-2.5-0.7-2.5-2.7c0-0.9,0.7-1.6,2.2-1.6c0.6,0,1.2,0.1,1.6,0.3l-0.2,1.1
		c-0.4-0.2-0.9-0.3-1.4-0.3C85.5,46,85.3,46.2,85.3,46.5z"/>
	<path fill="#FFFFFF" d="M89.5,50.8v-4.7L88.8,46v-1H91v5.8H89.5z M89.5,42.6H91V44h-1.6V42.6z"/>
	<path fill="#FFFFFF" d="M96.2,45.4c-0.1-0.3-0.1-0.6-0.1-1.1v-1.8h1.5v8.2h-1.3l-0.2-0.6c-0.2,0.4-0.8,0.8-1.5,0.8
		c-1.3,0-2.4-1-2.4-3c0-1.9,1.1-3,2.5-3C95.4,44.8,95.9,45.1,96.2,45.4z M96.1,46.3C95.8,46.2,95.5,46,95,46c-0.7,0-1.2,0.5-1.2,1.9
		c0,1.4,0.4,1.9,1.2,1.9c0.4,0,0.8-0.2,1.1-0.5V46.3z"/>
	<path fill="#FFFFFF" d="M100.4,48.3c0,0.9,0.5,1.4,1.5,1.4c0.6,0,1.2-0.2,1.7-0.5l0.3,1.1c-0.5,0.3-1.3,0.6-2.2,0.6
		c-1.8,0-2.9-1.1-2.9-3c0-1.8,0.9-3,2.7-3c1.8,0,2.5,1.3,2.5,2.8v0.7H100.4z M101.4,46c-0.8,0-1.1,0.7-1.1,1.4h2.1
		C102.5,46.6,102.3,46,101.4,46z"/>
	<path fill="#FFFFFF" d="M108.8,50.8v-3.5c0-0.9-0.3-1.3-1-1.3c-0.4,0-0.7,0.2-1,0.4v4.4h-1.6V45h1.1l0.2,0.7c0.3-0.4,1-0.8,1.8-0.8
		c1.5,0,2.1,0.9,2.1,2.3v3.6H108.8z"/>
	<path fill="#FFFFFF" d="M116.3,50.4c-0.3,0.2-1.1,0.5-2,0.5c-1.7,0-2.8-1-2.8-3c0-1.9,1-3,2.8-3c0.8,0,1.4,0.2,2,0.5l-0.4,1.1
		c-0.4-0.2-1-0.4-1.5-0.4c-0.8,0-1.3,0.5-1.3,1.9c0,1.3,0.5,1.9,1.3,1.9c0.6,0,1.2-0.2,1.6-0.4L116.3,50.4z"/>
	<path fill="#FFFFFF" d="M117.8,50.8v-4.7l-0.7-0.1v-1h2.2v5.8H117.8z M117.7,42.6h1.6V44h-1.6V42.6z"/>
	<path fill="#FFFFFF" d="M124.3,50.8l-0.2-0.7c-0.3,0.4-0.9,0.8-1.7,0.8c-1.2,0-2-0.7-2-1.9c0-1.1,0.8-1.7,2.2-1.7h1.2V47
		c0-0.7-0.4-1-1-1c-0.7,0-1.3,0.2-1.8,0.4l-0.4-1.1c0.6-0.2,1.4-0.5,2.3-0.5c1.7,0,2.4,0.8,2.4,2.2v3.7H124.3z M123.9,48.2h-1
		c-0.7,0-1,0.3-1,0.7c0,0.5,0.3,0.9,0.9,0.9c0.4,0,0.7-0.2,1-0.4V48.2z"/>
</g>
<g>
	<path fill="#FFFFFF" d="M72.4,127.1c-0.9,0.4-1.6,0.6-2.5,0.6c-2,0-2.9-1.4-2.9-3.5c0-2,1-3.3,3-3.3c1,0,1.6,0.2,2.2,0.6l-0.5,1
		c-0.4-0.2-0.9-0.4-1.6-0.4c-1.2,0-1.7,0.9-1.7,2.2c0,1.5,0.6,2.4,1.7,2.4c0.4,0,0.8-0.1,1.1-0.2v-1.2h-0.9l-0.1-0.9h2.2V127.1z"/>
	<path fill="#FFFFFF" d="M77.7,125.2c0,1.6-0.8,2.5-2.2,2.5c-1.4,0-2.2-0.9-2.2-2.5c0-1.4,0.8-2.5,2.2-2.5
		C76.9,122.7,77.7,123.8,77.7,125.2z M76.4,125.2c0-1.1-0.3-1.5-0.9-1.5c-0.6,0-0.9,0.4-0.9,1.5c0,1.1,0.3,1.6,0.9,1.6
		S76.4,126.3,76.4,125.2z"/>
	<path fill="#FFFFFF" d="M79.8,123.3c0.2-0.3,0.7-0.6,1.3-0.6c1.1,0,1.9,0.8,1.9,2.5c0,1.6-1,2.5-2.1,2.5c-0.7,0-1.1-0.3-1.4-0.7
		l-0.2,0.6h-0.7v-6.7h1.3v1.7L79.8,123.3z M79.9,126.2c0.2,0.3,0.5,0.5,0.9,0.5c0.6,0,1-0.4,1-1.6c0-1.1-0.4-1.5-0.9-1.5
		c-0.3,0-0.7,0.2-0.9,0.4V126.2z"/>
	<path fill="#FFFFFF" d="M84.3,127.6v-3.8l-0.5-0.1v-0.8h1.8v4.8H84.3z M84.3,120.9h1.3v1.2h-1.3V120.9z"/>
	<path fill="#FFFFFF" d="M87.9,125.5c0,0.8,0.4,1.2,1.2,1.2c0.5,0,1-0.2,1.4-0.4l0.2,0.9c-0.4,0.2-1,0.5-1.8,0.5
		c-1.5,0-2.4-0.9-2.4-2.5c0-1.5,0.7-2.5,2.2-2.5c1.4,0,2,1.1,2,2.3v0.6H87.9z M88.7,123.6c-0.6,0-0.9,0.6-0.9,1.1h1.7
		C89.6,124.2,89.4,123.6,88.7,123.6z"/>
	<path fill="#FFFFFF" d="M94.5,123.9c-0.2,0-0.4-0.1-0.6-0.1c-0.3,0-0.6,0.1-0.9,0.3v3.5h-1.3v-4.8h0.9c0,0.2,0.1,0.4,0.1,0.6h0
		c0.1-0.3,0.6-0.7,1.1-0.7c0.3,0,0.4,0,0.5,0.1C94.5,123.1,94.5,123.5,94.5,123.9z"/>
	<path fill="#FFFFFF" d="M98.2,127.6v-2.8c0-0.7-0.3-1.1-0.9-1.1c-0.3,0-0.6,0.1-0.8,0.3v3.6h-1.3v-4.8h0.9l0.2,0.5
		c0.3-0.3,0.8-0.6,1.5-0.6c1.2,0,1.7,0.7,1.7,1.9v2.9H98.2z"/>
	<path fill="#FFFFFF" d="M104.8,125.2c0,1.6-0.8,2.5-2.2,2.5c-1.4,0-2.2-0.9-2.2-2.5c0-1.4,0.8-2.5,2.2-2.5
		C104,122.7,104.8,123.8,104.8,125.2z M103.5,125.2c0-1.1-0.3-1.5-0.9-1.5c-0.6,0-0.9,0.4-0.9,1.5c0,1.1,0.3,1.6,0.9,1.6
		C103.2,126.7,103.5,126.3,103.5,125.2z"/>
	<path fill="#FFFFFF" d="M111,123.2c-0.1-0.3-0.1-0.5-0.1-0.9v-1.4h1.3v6.7h-1L111,127c-0.2,0.3-0.7,0.6-1.3,0.6
		c-1.1,0-1.9-0.8-1.9-2.5c0-1.6,0.9-2.5,2.1-2.5C110.3,122.7,110.7,122.9,111,123.2z M110.9,123.9c-0.2-0.1-0.5-0.2-0.9-0.2
		c-0.6,0-1,0.4-1,1.5c0,1.1,0.4,1.6,1,1.6c0.3,0,0.6-0.2,0.9-0.4V123.9z"/>
	<path fill="#FFFFFF" d="M114.4,125.5c0,0.8,0.4,1.2,1.2,1.2c0.5,0,1-0.2,1.4-0.4l0.2,0.9c-0.4,0.2-1,0.5-1.8,0.5
		c-1.5,0-2.4-0.9-2.4-2.5c0-1.5,0.7-2.5,2.2-2.5c1.4,0,2,1.1,2,2.3v0.6H114.4z M115.3,123.6c-0.6,0-0.9,0.6-0.9,1.1h1.7
		C116.1,124.2,115.9,123.6,115.3,123.6z"/>
	<path fill="#FFFFFF" d="M123.1,127.7c-1.8,0-2.8-1.2-2.8-3.4c0-2,1-3.4,2.8-3.4c0.9,0,1.7,0.2,2.2,0.6l-0.5,1
		c-0.3-0.3-0.9-0.4-1.6-0.4c-1.1,0-1.6,0.8-1.6,2.2c0,1.5,0.5,2.3,1.6,2.3c0.6,0,1.3-0.3,1.7-0.6l0.4,1
		C124.8,127.4,124,127.7,123.1,127.7z"/>
	<path fill="#FFFFFF" d="M126.3,127.6v-6.7h1.3v1.8c0,0.3-0.1,0.7-0.1,0.7c0.3-0.3,0.7-0.7,1.3-0.7c1.4,0,1.8,0.7,1.8,1.9v2.9h-1.3
		v-2.8c0-0.1,0-0.2-0.1-0.3c0-0.5-0.3-0.8-0.8-0.8c-0.3,0-0.6,0.1-0.8,0.3v3.6H126.3z"/>
	<path fill="#FFFFFF" d="M132,127.6v-3.8l-0.5-0.1v-0.8h1.8v4.8H132z M131.9,120.9h1.3v1.2h-1.3V120.9z"/>
	<path fill="#FFFFFF" d="M134.4,126.3v-5.4h1.3v5.4c0,0.4,0.2,0.5,0.8,0.5v0.9c0,0-0.4,0.1-0.7,0.1
		C134.7,127.7,134.4,127.1,134.4,126.3z"/>
	<path fill="#FFFFFF" d="M138.3,125.5c0,0.8,0.4,1.2,1.2,1.2c0.5,0,1-0.2,1.4-0.4l0.2,0.9c-0.4,0.2-1,0.5-1.8,0.5
		c-1.5,0-2.4-0.9-2.4-2.5c0-1.5,0.7-2.5,2.2-2.5c1.4,0,2,1.1,2,2.3v0.6H138.3z M139.2,123.6c-0.6,0-0.9,0.6-0.9,1.1h1.7
		C140.1,124.2,139.9,123.6,139.2,123.6z"/>
</g>
</svg>
