<?xml version="1.0" encoding="UTF-8"?>
<svg width="140px" height="140px" viewBox="0 0 140 140" version="1.1" xmlns="http://www.w3.org/2000/svg" xmlns:xlink="http://www.w3.org/1999/xlink">
    <!-- Generator: Sketch 48.2 (47327) - http://www.bohemiancoding.com/sketch -->
    <title>tipo/1</title>
    <desc>Created with Sketch.</desc>
    <defs></defs>
    <g id="Symbols" stroke="none" stroke-width="1" fill="none" fill-rule="evenodd">
        <g id="tipo/1" fill="#01B5BC">
            <g id="Page-1" transform="translate(35.000000, 35.000000)">
                <path d="M57.9689362,32.8389362 C58.9114043,30.2267447 59.4350638,27.428383 59.4350638,24.5282979 C59.4350638,11.0540426 48.4741064,0.0938297872 35.0005957,0.0938297872 C22.9665532,0.0938297872 12.9625106,8.84680851 10.9555957,20.3134043 C4.61419149,21.7475106 0.0936808511,27.3239043 0.0936808511,33.9038298 C0.0936808511,40.1667447 4.1981383,45.5804255 10.1587872,47.3021277 L12.5237447,55.9441489 L10.5660532,55.9441489 L10.5660532,58.2712766 L17.5474362,58.2712766 L17.5474362,55.9441489 L15.5752234,55.9441489 L17.9488936,47.3021277 C19.4411596,46.8687011 20.8287234,46.1792979 22.1057021,45.2716809 C23.5834468,46.1851064 25.1658936,46.9646383 26.8530426,47.5609787 L33.398117,67.580234 L31.5102021,67.580234 L31.5102021,69.9073617 L38.4915851,69.9073617 L38.4915851,67.580234 L36.6036702,67.580234 L42.3720426,49.9231064 C43.5297979,54.7606277 47.1950426,58.6641702 52.1228936,60.0574681 L54.3801702,67.580234 L52.4545,67.580234 L52.4545,69.9073617 L59.435883,69.9073617 L59.435883,67.580234 L57.5102128,67.580234 L59.7674894,60.0574681 C65.7714787,58.3587021 69.9078085,52.9364574 69.9078085,46.6360851 C69.9078085,39.5848511 64.7794149,33.8134255 57.9698298,32.839383 L57.9689362,32.8389362 Z M49.3760638,44.2735106 C51.0923298,43.0284787 52.6311383,41.5798511 53.9546596,39.953766 C54.6120713,39.7588681 55.2781809,39.6541511 55.9443723,39.6541511 C59.7957872,39.6541511 62.9257553,42.7841191 62.9257553,46.635534 C62.9257553,50.4869489 59.7957872,53.616917 55.9443723,53.616917 C52.0929574,53.616917 48.9629894,50.4869489 48.9629894,46.635534 C48.9629894,45.8268851 49.102617,45.0327574 49.3760564,44.2734809 L49.3760638,44.2735106 Z M10.8157447,27.9515957 C10.8448394,28.1610372 10.8739266,28.3704787 10.9088298,28.5799202 C10.9786436,29.0046191 11.0659128,29.4234947 11.1589979,29.8423777 C11.2404511,30.2059904 11.3335362,30.5666989 11.4295255,30.9244734 C11.4906191,31.1484585 11.5487936,31.3724436 11.6156957,31.5935245 C11.7175085,31.9309543 11.8280489,32.2625755 11.9414936,32.5942266 C11.9880362,32.7251266 12.0345787,32.8531223 12.084033,32.9840223 C13.0847351,35.7067245 14.5536926,38.2142138 16.4241074,40.3988096 C15.6649053,40.6751532 14.8648947,40.8176926 14.0562457,40.8176926 C10.2048309,40.8176926 7.07486277,37.6877245 7.07486277,33.8363096 C7.07486277,31.2386394 8.54389468,28.8765862 10.7779372,27.6781713 C10.7895766,27.7712564 10.8041202,27.8614298 10.8157596,27.9516106 L10.8157447,27.9515957 Z M16.738266,45.2132979 C16.3251989,45.3121989 15.9964968,45.6263649 15.8859787,46.0394468 L14.0533936,52.7066489 L12.2324255,46.0394468 C12.1189809,45.6263798 11.7902713,45.3122213 11.377234,45.2132979 C6.10340426,43.968266 2.42096043,39.3169149 2.42096043,33.9030851 C2.42096043,28.7106489 5.79525532,24.2602128 10.6414894,22.7909574 C10.5891309,23.3989223 10.5658596,23.9690426 10.5658596,24.5275532 C10.5658596,24.7660819 10.5804032,24.9987947 10.5862266,25.2344191 C7.11586489,26.6394085 4.74807543,30.0370149 4.74807543,33.8362277 C4.74807543,38.9675255 8.92529043,43.1447383 14.0565883,43.1447383 C15.4702904,43.1447383 16.85495,42.8043968 18.123216,42.181866 C18.7369968,42.7694638 19.3769606,43.3338128 20.0547691,43.8544936 C19.0250245,44.4799064 17.9138117,44.9365894 16.7386309,45.2129404 L16.738266,45.2132979 Z M41.1146564,46.2808723 L35.0001564,64.9969362 L28.8856489,46.2808723 C28.7692926,45.9259872 28.4929489,45.6525479 28.1409681,45.5361915 C26.1977979,44.9020511 24.4001383,44.0060957 22.7594574,42.9181915 C22.7478255,42.9094638 22.7420096,42.8920085 22.727466,42.8832883 C21.3428064,41.9582457 20.0948702,40.887767 18.9749447,39.7125862 C18.6462351,39.3664287 18.3262606,39.0115362 18.0237638,38.6450117 C17.9568543,38.5635585 17.8841362,38.4850245 17.817234,38.4035713 C17.4419819,37.9410574 17.0870968,37.4611032 16.7525638,36.9723691 C16.7060213,36.9025553 16.6623904,36.8327415 16.6158479,36.7658394 C16.2987777,36.2887819 15.9991628,35.8058713 15.7199223,35.3084989 C15.6995553,35.2735883 15.6791957,35.2386851 15.6588287,35.2037819 C14.0938074,32.3733989 13.1571479,29.2143138 12.9506479,25.9444202 C12.9506479,25.9415085 12.9506479,25.9415085 12.9477436,25.9385968 C12.9186564,25.4702596 12.8924734,25.0019372 12.8924734,24.5277989 C12.8924734,23.9285617 12.9361043,23.3380223 12.9826468,22.7504691 C13.0204617,22.3461298 13.0670043,21.9243202 13.1280904,21.4705117 C14.6261649,10.724767 23.8500053,2.42008617 35.0001117,2.42008617 C47.1912819,2.42008617 57.1081968,12.3362564 57.1081968,24.5281713 C57.1081968,27.6465223 56.4507851,30.6368628 55.2639202,33.3652989 C55.2610085,33.3740266 55.2522809,33.3798426 55.2493766,33.3885702 C54.3999936,35.3259319 53.2625681,37.1090702 51.912834,38.7118468 C51.7964777,38.8514745 51.6801213,38.9881904 51.5608532,39.1249138 C50.6445234,40.160467 49.6380872,41.1146266 48.5443,41.9640096 C48.5268447,41.9785532 48.5093894,41.9901926 48.4919415,42.0047362 C46.75825,43.3428532 44.8266968,44.4307574 42.7526862,45.2074596 C42.7497745,45.2074596 42.7468628,45.2132755 42.7439585,45.2132755 C42.4501596,45.323816 42.1621766,45.4430766 41.85965,45.5419851 C41.5076691,45.6525255 41.2313255,45.9288691 41.1149691,46.28085 L41.1146564,46.2808723 Z M58.5766702,57.9604468 C58.1694191,58.0535319 57.8436213,58.3618745 57.724383,58.760383 L55.9441489,64.6945957 L54.1639149,58.760383 C54.0417426,58.3589553 53.7188489,58.0564287 53.3116277,57.9604468 C48.1919468,56.7765532 44.5646064,52.392766 44.3292872,47.0895957 C45.1321277,46.7579819 45.9175426,46.4030894 46.6680319,45.9958085 C46.6534883,46.2081617 46.6360404,46.4205074 46.6360404,46.6357723 C46.6360404,51.7670702 50.8132532,55.944283 55.9445511,55.944283 C61.0758489,55.944283 65.2530617,51.7670702 65.2530617,46.6357723 C65.2530617,41.5044745 61.0758489,37.3272617 55.9445511,37.3272617 C55.9009128,37.3272617 55.8572819,37.3330777 55.8136511,37.3330777 C56.264533,36.6000362 56.6717468,35.843716 57.0440872,35.0641096 C63.0102468,35.6138926 67.5798319,40.5590351 67.5798319,46.6357053 C67.5798319,52.0753755 63.8767574,56.732833 58.5766404,57.960067 L58.5766702,57.9604468 Z" id="Fill-1"></path>
                <polygon id="Fill-2" points="61.7623404 69.9069149 64.0894681 69.9069149 64.0894681 67.5797872 61.7623404 67.5797872"></polygon>
                <polygon id="Fill-3" points="40.8174468 69.9069149 43.1445745 69.9069149 43.1445745 67.5797872 40.8174468 67.5797872"></polygon>
                <polygon id="Fill-4" points="19.8740426 58.2712766 22.2011702 58.2712766 22.2011702 55.9441489 19.8740426 55.9441489"></polygon>
                <path d="M52.4538298,33.8368085 L52.4538298,18.7108511 C52.4538298,18.4577787 52.3723766,18.2134266 52.221117,18.0127128 L45.239734,8.70420213 C45.0186532,8.41040319 44.6754074,8.2387766 44.308883,8.2387766 L25.6918617,8.2387766 L25.6918617,8.26495957 C25.3369766,8.26495957 24.9820915,8.41040319 24.7610106,8.70420213 L17.7796277,18.0127128 C17.6283681,18.2134266 17.5469149,18.4577787 17.5469149,18.7108511 L17.5469149,33.8368085 C17.5469149,34.4796766 18.0676106,35.0003723 18.7104787,35.0003723 L51.290266,35.0003723 C51.933134,35.0003723 52.4538298,34.4796766 52.4538298,33.8368085 Z M24.5282979,32.6732447 L24.5282979,25.6918617 L26.8554255,25.6918617 L26.8554255,32.6732447 L24.5282979,32.6732447 Z M31.5096809,32.6732447 L29.1825532,32.6732447 L29.1825532,24.5279255 C29.1825532,23.8850574 28.6618574,23.3643617 28.0189894,23.3643617 L23.364734,23.3643617 C22.721866,23.3643617 22.2011702,23.8850574 22.2011702,24.5279255 L22.2011702,32.6732447 L19.8740426,32.6732447 L19.8740426,19.0977128 L25.6918617,11.3426064 L31.5096809,19.0977128 L31.5096809,32.6732447 Z M28.0189894,10.5651596 L43.7272872,10.5651596 L48.9632872,17.5465426 L33.2549894,17.5465426 L28.0189894,10.5651596 Z M33.8368085,32.6732447 L33.8368085,19.8736702 L50.1267021,19.8736702 L50.1267021,32.6732447 L33.8368085,32.6732447 Z" id="Fill-5"></path>
                <polygon id="Fill-6" points="37.3271277 25.6914894 39.6542553 25.6914894 39.6542553 23.3643617 37.3271277 23.3643617"></polygon>
                <polygon id="Fill-7" points="44.3085106 25.6914894 46.6356383 25.6914894 46.6356383 23.3643617 44.3085106 23.3643617"></polygon>
            </g>
        </g>
    </g>
</svg>