<?xml version="1.0" encoding="UTF-8"?>
<svg width="140px" height="140px" viewBox="0 0 140 140" version="1.1" xmlns="http://www.w3.org/2000/svg" xmlns:xlink="http://www.w3.org/1999/xlink">
    <!-- Generator: Sketch 48.2 (47327) - http://www.bohemiancoding.com/sketch -->
    <title>tipo/2</title>
    <desc>Created with Sketch.</desc>
    <defs></defs>
    <g id="Symbols" stroke="none" stroke-width="1" fill="none" fill-rule="evenodd">
        <g id="tipo/2" fill="#01B5BC">
            <path d="M40.4090909,41 C39.6302159,41 39,41.6283008 39,42.4047619 L39,98.5952381 C39,99.3717202 39.630237,100 40.4090909,100 L99.5909091,100 C100.369784,100 101,99.3716992 101,98.5952381 C101,97.818777 100.369763,97.1904762 99.5909091,97.1904762 L41.8181818,97.1904762 L41.8181818,42.4047619 C41.8181818,41.6282798 41.1879448,41 40.4090909,41 Z M92.0413789,50 C89.3187043,50 87.0830766,52.2310877 87.0830766,54.9482332 C87.0830766,56.063777 87.4676779,57.0771752 88.1012994,57.908337 L79.6898936,69.9035612 C79.3329596,69.8207207 78.9622273,69.7931095 78.5831297,69.7931095 C77.1996925,69.7931095 75.9434712,70.3508885 75.0414852,71.2731968 L69.1092306,67.8271058 C69.2780112,67.330077 69.3748539,66.8109508 69.3748539,66.2586573 C69.3748539,63.5415117 67.1392262,61.310424 64.4165516,61.310424 C61.6938769,61.310424 59.4582492,63.5415117 59.4582492,66.2586573 C59.4582492,67.3742011 59.8428506,68.3875992 60.476472,69.218761 L52.0650663,81.2139852 C51.7081322,81.1311447 51.3374,81.1035336 50.9583023,81.1035336 C48.2356277,81.1035336 46,83.3346213 46,86.0517668 C46,88.7689123 48.2356277,91 50.9583023,91 C53.680977,91 55.9166047,88.7689123 55.9166047,86.0517668 C55.9166047,84.7263472 55.3825884,83.4975595 54.5220467,82.6056758 L62.7344121,70.8981561 C63.2601267,71.0914482 63.8273636,71.2074206 64.4166932,71.2074206 C65.5677277,71.2074206 66.6274586,70.7904684 67.4713616,70.12503 L73.7356808,73.7698985 C73.6720445,74.0846839 73.6250044,74.410518 73.6250044,74.7418729 C73.6250044,77.4590185 75.8606321,79.6901061 78.5833068,79.6901061 C81.3059814,79.6901061 83.5416091,77.4590185 83.5416091,74.7418729 C83.5416091,73.4164533 83.0075929,72.1876656 82.1470512,71.2957819 L90.3594165,59.5882622 C90.8851311,59.7815543 91.452368,59.8975267 92.0416977,59.8975267 C94.7643723,59.8975267 97,57.6664391 97,54.9492935 C97,52.232148 94.7643723,50.0010603 92.0416977,50.0010603 L92.0413789,50 Z" id="Page-1"></path>
        </g>
    </g>
</svg>