<?xml version="1.0" encoding="UTF-8"?>
<svg width="140px" height="140px" viewBox="0 0 140 140" version="1.1" xmlns="http://www.w3.org/2000/svg" xmlns:xlink="http://www.w3.org/1999/xlink">
    <!-- Generator: Sketch 48.2 (47327) - http://www.bohemiancoding.com/sketch -->
    <title>tipo/3</title>
    <desc>Created with Sketch.</desc>
    <defs></defs>
    <g id="Symbols" stroke="none" stroke-width="1" fill="none" fill-rule="evenodd">
        <g id="tipo/3" fill="#01B5BC">
            <path d="M105.704466,88.399181 L101.56705,85.0759993 C101.325886,84.8827183 100.997023,84.8453135 100.718271,84.9762424 C100.439519,85.1071714 100.261,85.390856 100.261,85.6963595 L100.261,88.221486 L98.8328452,88.221486 L98.8328452,44.487263 C98.8328452,44.0445898 98.4726635,43.6892078 98.0310516,43.6892078 L57.8852424,43.6892078 C57.4436305,43.6892078 57.0834487,44.0445898 57.0834487,44.487263 L57.0834487,50.3386037 L54.5464934,50.3417241 C54.2364237,50.3417241 53.9576801,50.5194191 53.8230029,50.7937506 C53.6914606,51.0712025 53.7290407,51.4016452 53.9232271,51.6385718 C53.9232271,51.6385718 57.4905675,56.0154258 57.3997242,56.0216506 C54.1173413,56.2585772 51.4739879,58.824181 51.1513462,62.0662803 L47.0735037,58.7898647 C46.8323402,58.5965837 46.5034765,58.5591788 46.2247249,58.6901078 C45.9459734,58.8210367 45.767454,59.1047214 45.767454,59.4102249 L45.764319,61.9384638 L43.6439756,61.9384638 L43.6439756,53.614748 L49.0810989,53.614748 C49.9674818,53.614748 50.6846862,52.9008637 50.6846862,52.0186376 L50.6846862,39.5961104 C50.6846862,38.7138604 49.9674577,38 49.0810989,38 L36.6035873,38 C35.7172044,38 35,38.7138843 35,39.5961104 L35,52.0154454 C35,52.8976954 35.7172285,53.6115558 36.6035873,53.6115558 L42.040709,53.6115558 L42.040709,62.736519 C42.040709,63.1791922 42.4008907,63.5345742 42.8425027,63.5345742 L45.7646397,63.5345742 L45.7646397,66.062813 C45.7646397,66.3714369 45.9431671,66.6488888 46.2219106,66.7829302 C46.3315319,66.835921 46.6478635,66.982444 47.0706894,66.6831733 L51.1485319,63.4067576 C51.4617285,66.5459876 53.9485557,69.0554721 57.0836492,69.426488 L57.0836492,71.0724769 L54.5466938,71.0724769 C54.2366242,71.0724769 53.9578806,71.2501718 53.8232033,71.5245033 C53.691661,71.8019552 53.7292411,72.1323979 53.9234275,72.3693245 L56.8988037,76.0385429 L49.7265187,76.0416553 C48.8401358,76.0416553 48.1229314,76.7555397 48.1229314,77.6377657 L48.1229314,100.403886 C48.1229314,101.286136 48.8401599,102 49.7265187,102 L66.0446235,102 C66.9310064,102 67.6482109,101.286112 67.6482109,100.403886 L67.6482109,89.8168861 L71.1591852,89.8168861 L71.1591852,92.345125 C71.1591852,92.6537489 71.3377126,92.9312008 71.6164561,93.0652421 C71.7260774,93.118241 72.2052774,93.2055243 72.4652349,92.9654852 L75.9543203,90.1629548 L75.9543203,100.400407 C75.9543203,101.282657 76.6715488,101.996521 77.5579076,101.996521 L93.8728052,101.999638 C94.7591881,101.999638 95.4763926,101.285753 95.4763926,100.403527 L95.4763926,89.816527 L100.258931,89.816527 L100.258931,92.3447659 C100.258931,92.6533898 100.437459,92.9308417 100.716202,93.064883 C100.825824,93.1178819 101.170346,93.2176388 101.564981,92.9651261 L105.702397,89.638832 C105.890321,89.4860763 105.999935,89.2585109 105.999935,89.0184718 C106.00307,88.7784328 105.893448,88.5508593 105.705524,88.3981116 L105.704466,88.399181 Z M38.2062671,41.1926198 L47.4766055,41.1926198 L47.4766055,50.419734 L38.2062671,50.419734 L38.2062671,41.1926198 Z M47.3675616,64.3952767 L47.3675616,61.0846245 L49.4284118,62.7399506 L47.3675616,64.3952767 Z M56.2217691,51.9384331 L59.5479299,51.9384331 L57.8848495,53.9896744 L56.2217691,51.9384331 Z M57.8848495,67.0855208 C56.8262413,67.0855208 55.8521422,66.708312 55.0973336,66.0786145 L57.8848495,63.3040958 L60.6754924,66.0817269 C59.9175488,66.7052076 58.9466649,67.0855208 57.8848495,67.0855208 Z M61.2423605,65.5143097 L58.4517176,62.7366786 L61.2423605,59.9590474 C61.8718968,60.713457 62.2539836,61.6798141 62.2539836,62.7366786 C62.2508486,63.7934633 61.8718808,64.7599081 61.2423605,65.5143097 Z M57.8848495,62.1724535 L55.0973336,59.3979348 C55.8552772,58.7713338 56.8261611,58.3910286 57.8848495,58.3910286 C58.9435379,58.3910286 59.9175568,58.7682374 60.6754924,59.3979348 L57.8848495,62.1724535 Z M54.5304655,59.9622397 L57.3179814,62.7367584 L54.5304655,65.5112771 C53.9009292,64.7568675 53.5188424,63.7905105 53.5188424,62.7367584 C53.5188424,61.6830861 53.9009452,60.7167211 54.5304655,59.9622397 Z M59.5479299,72.6688746 L57.8848495,74.7201158 L56.2217691,72.6688746 L59.5479299,72.6688746 Z M64.4401542,98.8083746 L51.3292241,98.8083746 L51.3292241,79.2344747 L64.4401542,79.2344747 L64.4401542,98.8083746 Z M72.7619707,90.675394 L72.7619707,87.3647418 L74.822821,89.0200679 L72.7619707,90.675394 Z M92.2680072,98.8083746 L79.1570771,98.8083746 L79.1570771,79.2344747 L92.2680072,79.2344747 L92.2680072,98.8083746 Z M93.8715945,76.0422539 L77.5534897,76.0422539 C76.6671068,76.0422539 75.9499024,76.7561382 75.9499024,77.6383643 L75.9499024,87.8758164 L72.460817,85.0732859 C72.2196535,84.8800049 71.8907898,84.8426001 71.6120383,84.973529 C71.3332867,85.104458 71.1547673,85.3881427 71.1547673,85.6936462 L71.1547673,88.2187726 L67.643793,88.2187726 L67.646928,77.6381568 C67.646928,76.7559068 66.9296995,76.0420464 66.0433407,76.0420464 L58.8741827,76.0420464 L61.8495589,72.372828 C62.0437453,72.132789 62.0813253,71.8054586 61.9497831,71.5280068 C61.8182408,71.2505549 61.5363542,71.0759803 61.2262926,71.0759803 L58.6862102,71.0759803 L58.6862102,69.4299915 C62.0437212,69.0340843 64.6558046,66.1878922 64.6558046,62.7400543 C64.6558046,59.1893472 61.8808769,56.2776428 58.3730296,56.0251381 C58.2790674,56.0189053 61.8463998,51.6420593 61.8463998,51.6420593 C62.0405862,51.4020203 62.0781663,51.07469 61.946624,50.7972381 C61.8150817,50.5197862 61.5332031,50.3452116 61.2231335,50.3452116 L58.6830511,50.3452116 L58.6830511,45.2919261 L97.2220658,45.2919261 L97.2220658,88.2280939 L95.4743961,88.2218611 L95.4743961,77.638053 C95.4743961,76.755803 94.7571676,76.0419426 93.8708088,76.0419426 L93.8715945,76.0422539 Z M101.861308,90.675394 L101.861308,87.3647418 L103.922158,89.0200679 L101.861308,90.675394 Z" id="Page-1"></path>
        </g>
    </g>
</svg>