<?xml version="1.0" encoding="UTF-8"?>
<svg width="140px" height="140px" viewBox="0 0 140 140" version="1.1" xmlns="http://www.w3.org/2000/svg" xmlns:xlink="http://www.w3.org/1999/xlink">
    <!-- Generator: Sketch 48.2 (47327) - http://www.bohemiancoding.com/sketch -->
    <title>tipo/4</title>
    <desc>Created with Sketch.</desc>
    <defs></defs>
    <g id="Symbols" stroke="none" stroke-width="1" fill="none" fill-rule="evenodd">
        <g id="tipo/4" fill="#01B5BC">
            <g id="Page-1" transform="translate(42.000000, 35.000000)">
                <path d="M10.4811,51.0398 C10.095554,51.045267 9.72643,51.206596 9.45847,51.482767 C9.187766,51.761675 9.040108,52.13355 9.045582,52.521847 L9.045582,68.5203477 C9.040115,68.9113607 9.19324,69.2860077 9.466674,69.5648878 C9.740108,69.8410588 10.11472,69.9996507 10.505754,69.9996507 C10.894037,69.9996507 11.268614,69.8410588 11.542104,69.5648878 C11.818275,69.2859797 11.96867,68.9113747 11.963196,68.5203477 L11.963196,52.521847 C11.968663,52.12536 11.815538,51.745267 11.53663,51.466387 C11.257722,51.187479 10.877643,51.034354 10.48117,51.039821 L10.4811,51.0398 Z" id="Fill-1"></path>
                <path d="M19.2311,42.2898 C18.842817,42.295267 18.47643,42.456596 18.20574,42.732767 C17.937773,43.011675 17.790115,43.38355 17.795582,43.771847 L17.795582,68.5203477 C17.790115,68.9113607 17.940503,69.2860077 18.213944,69.5648878 C18.490115,69.8410588 18.86199,69.9996507 19.253024,69.9996507 C19.644058,69.9996507 20.018684,69.8410588 20.292104,69.5648878 C20.565538,69.2859797 20.71867,68.9113747 20.710466,68.5203477 L20.710466,43.771847 C20.71867,43.378097 20.562808,42.995267 20.2839,42.716387 C20.004992,42.437479 19.624913,42.284354 19.23117,42.289821 L19.2311,42.2898 Z" id="Fill-2"></path>
                <path d="M27.9783,33.5398 C27.592754,33.545267 27.22363,33.706596 26.95567,33.982767 C26.684966,34.261675 26.537308,34.63355 26.545512,35.021847 L26.545512,68.5203477 C26.540045,68.9113607 26.690433,69.2860077 26.963874,69.5648878 C27.237308,69.8410588 27.61192,69.9996507 28.002954,69.9996507 C28.393988,69.9996507 28.765814,69.8410588 29.042034,69.5648878 C29.315468,69.2859797 29.465863,68.9113747 29.460396,68.5203477 L29.460396,35.021847 C29.465863,34.628097 29.312738,34.245267 29.03383,33.966387 C28.754922,33.687479 28.374843,33.534354 27.97837,33.539821 L27.9783,33.5398 Z" id="Fill-3"></path>
                <path d="M36.7283,24.7898 C36.342754,24.795267 35.97363,24.956596 35.70294,25.232767 C35.434973,25.511675 35.287315,25.88628 35.292782,26.271847 L35.292782,68.5203477 C35.287315,68.9113607 35.437703,69.2860077 35.713874,69.5648878 C35.987308,69.8410588 36.36192,69.9996507 36.750224,69.9996507 C37.141237,69.9996507 37.515884,69.8410588 37.789304,69.5648878 C38.062738,69.2859797 38.21587,68.9113747 38.210396,68.5203477 L38.210396,26.271847 C38.215863,25.878097 38.062738,25.497997 37.78383,25.216387 C37.502192,24.937479 37.122113,24.784354 36.72837,24.789821 L36.7283,24.7898 Z" id="Fill-4"></path>
                <path d="M45.4783,16.0398 C45.090017,16.048004 44.7209,16.206596 44.45294,16.482767 C44.184973,16.761675 44.034578,17.13628 44.042782,17.521847 L44.042782,68.5203491 C44.037315,68.9113621 44.187703,69.2860091 44.461144,69.5648891 C44.734578,69.8410601 45.10919,69.9996521 45.500224,69.9996521 C45.891258,69.9996521 46.265884,69.8410601 46.539304,69.5648891 C46.812738,69.2859811 46.963133,68.9113761 46.957666,68.5203491 L46.957666,17.521847 C46.96587,17.128097 46.810008,16.747997 46.5311,16.469117 C46.252192,16.187479 45.872113,16.034354 45.47837,16.039821 L45.4783,16.0398 Z" id="Fill-5"></path>
                <path d="M54.1926,0.002737 C53.864475,0.016408 53.550021,0.139454 53.30122,0.352737 L0.83972,44.072637 C0.53347,44.318729 0.339332,44.674196 0.298312,45.065237 C0.260029,45.45352 0.377608,45.844547 0.629174,46.145337 C0.880733,46.44612 1.241674,46.634791 1.629964,46.66487 C2.020977,46.697679 2.409274,46.571903 2.704604,46.31487 L55.166104,2.59497 C55.655558,2.198483 55.836025,1.53405 55.614538,0.94612 C55.393051,0.358232 54.818848,-0.02184 54.192698,0.00273 L54.1926,0.002737 Z" id="Fill-6"></path>
                <path d="M1.7339,35.0028 C0.93002,35.013741 0.28742,35.675458 0.29834,36.47938 L0.29834,45.20768 C0.29834,46.01156 0.951853,46.66508 1.75574,46.66508 L10.48404,46.66508 C10.875053,46.670547 11.2497,46.520159 11.52858,46.243988 C11.804751,45.970554 11.963343,45.598672 11.963343,45.207638 C11.963343,44.816625 11.804751,44.441978 11.52858,44.168558 C11.249672,43.895124 10.875067,43.744729 10.48404,43.750196 L3.21314,43.750196 L3.21314,36.479296 C3.218607,36.085546 3.065482,35.705446 2.786574,35.426566 C2.507666,35.150395 2.127587,34.994533 1.733844,35.002737 L1.7339,35.0028 Z" id="Fill-7"></path>
                <path d="M45.5189,-3.3468779e-15 C45.127887,-0.00819 44.75051,0.144921 44.47436,0.418362 C44.195452,0.691796 44.03686,1.066408 44.03686,1.457442 C44.03686,1.848455 44.195452,2.223102 44.47436,2.496522 C44.750531,2.772693 45.127873,2.923088 45.5189,2.914884 L52.7898,2.914884 L52.7898,10.188584 C52.784333,10.579597 52.937458,10.954244 53.210892,11.233124 C53.484326,11.509295 53.858938,11.667887 54.249972,11.667887 C54.638255,11.667887 55.012832,11.509295 55.286322,11.233124 C55.562493,10.954216 55.712888,10.579611 55.707414,10.188584 L55.707414,1.457484 C55.707414,0.653604 55.053901,8.4e-05 54.250014,8.4e-05 L45.521714,8.4e-05 L45.5189,-3.3468779e-15 Z" id="Fill-8"></path>
            </g>
        </g>
    </g>
</svg>